<?xml version="1.0" encoding="UTF-8" standalone="no"?><svg xmlns="http://www.w3.org/2000/svg" xmlns:xlink="http://www.w3.org/1999/xlink" contentScriptType="application/ecmascript" contentStyleType="text/css" height="2725px" preserveAspectRatio="none" style="width:726px;height:2725px;" version="1.1" viewBox="0 0 726 2725" width="726px" zoomAndPan="magnify"><defs/><g><!--MD5=[a6f11bb19cee6b13000111f5ad685e8b]
cluster Dependencies--><path d="M582,914.73 L676,914.73 A4.5,4.5 0 0 1 679,917.73 L686,935.2144 L711,935.2144 A3,3 0 0 1 714,938.2144 L714,1514.73 A3,3 0 0 1 711,1517.73 L582,1517.73 A3,3 0 0 1 579,1514.73 L579,917.73 A3,3 0 0 1 582,914.73 " fill="#FFFFFF" style="stroke: #000000; stroke-width: 1.5;"/><line style="stroke: #000000; stroke-width: 1.5;" x1="579" x2="686" y1="935.2144" y2="935.2144"/><text fill="#000000" font-family="Tahoma, sans-serif" font-size="12" font-weight="bold" lengthAdjust="spacingAndGlyphs" textLength="94" x="583" y="928.7359">Dependencies</text><!--MD5=[0ef4975798c7ac853a2bc39f05d6cd5c]
entity @date-io--><rect fill="#F8F8F8" height="34.4844" rx="3" ry="3" style="stroke: #383838; stroke-width: 1.0;" width="73" x="610" y="947.73"/><rect fill="#F8F8F8" height="5" style="stroke: #383838; stroke-width: 1.0;" width="10" x="605" y="952.73"/><rect fill="#F8F8F8" height="5" style="stroke: #383838; stroke-width: 1.0;" width="10" x="605" y="972.2144"/><text fill="#000000" font-family="Tahoma, sans-serif" font-size="12" lengthAdjust="spacingAndGlyphs" textLength="53" x="620" y="969.7359">@date-io</text><!--MD5=[9191fc0b1c9469c3e45f4eb0ccefac35]
entity @devexpress--><rect fill="#F8F8F8" height="34.4844" rx="3" ry="3" style="stroke: #383838; stroke-width: 1.0;" width="97" x="598" y="1311.73"/><rect fill="#F8F8F8" height="5" style="stroke: #383838; stroke-width: 1.0;" width="10" x="593" y="1316.73"/><rect fill="#F8F8F8" height="5" style="stroke: #383838; stroke-width: 1.0;" width="10" x="593" y="1336.2144"/><text fill="#000000" font-family="Tahoma, sans-serif" font-size="12" lengthAdjust="spacingAndGlyphs" textLength="77" x="608" y="1333.7359">@devexpress</text><!--MD5=[d674284c84cd9a1fa8a642831ae08da6]
entity @material-ui--><rect fill="#F8F8F8" height="34.4844" rx="3" ry="3" style="stroke: #383838; stroke-width: 1.0;" width="93" x="600" y="1415.73"/><rect fill="#F8F8F8" height="5" style="stroke: #383838; stroke-width: 1.0;" width="10" x="595" y="1420.73"/><rect fill="#F8F8F8" height="5" style="stroke: #383838; stroke-width: 1.0;" width="10" x="595" y="1440.2144"/><text fill="#000000" font-family="Tahoma, sans-serif" font-size="12" lengthAdjust="spacingAndGlyphs" textLength="73" x="610" y="1437.7359">@material-ui</text><!--MD5=[92c76255242b65bb2780cba28222c775]
entity axios--><rect fill="#F8F8F8" height="34.4844" rx="3" ry="3" style="stroke: #383838; stroke-width: 1.0;" width="51" x="621" y="1051.73"/><rect fill="#F8F8F8" height="5" style="stroke: #383838; stroke-width: 1.0;" width="10" x="616" y="1056.73"/><rect fill="#F8F8F8" height="5" style="stroke: #383838; stroke-width: 1.0;" width="10" x="616" y="1076.2144"/><text fill="#000000" font-family="Tahoma, sans-serif" font-size="12" lengthAdjust="spacingAndGlyphs" textLength="31" x="631" y="1073.7359">axios</text><!--MD5=[0e4cc9a6c4ea13865d0df8a30455f583]
entity date-fns--><rect fill="#F8F8F8" height="34.4844" rx="3" ry="3" style="stroke: #383838; stroke-width: 1.0;" width="68" x="612.5" y="1103.73"/><rect fill="#F8F8F8" height="5" style="stroke: #383838; stroke-width: 1.0;" width="10" x="607.5" y="1108.73"/><rect fill="#F8F8F8" height="5" style="stroke: #383838; stroke-width: 1.0;" width="10" x="607.5" y="1128.2144"/><text fill="#000000" font-family="Tahoma, sans-serif" font-size="12" lengthAdjust="spacingAndGlyphs" textLength="48" x="622.5" y="1125.7359">date-fns</text><!--MD5=[d0b722d46cc42892f9ca07e62d67473f]
entity immer--><rect fill="#F8F8F8" height="34.4844" rx="3" ry="3" style="stroke: #383838; stroke-width: 1.0;" width="56" x="618.5" y="1155.73"/><rect fill="#F8F8F8" height="5" style="stroke: #383838; stroke-width: 1.0;" width="10" x="613.5" y="1160.73"/><rect fill="#F8F8F8" height="5" style="stroke: #383838; stroke-width: 1.0;" width="10" x="613.5" y="1180.2144"/><text fill="#000000" font-family="Tahoma, sans-serif" font-size="12" lengthAdjust="spacingAndGlyphs" textLength="36" x="628.5" y="1177.7359">immer</text><!--MD5=[8fb31415cf2fe3335a33b70fa96e9abb]
entity lodash/lodash--><rect fill="#F8F8F8" height="34.4844" rx="3" ry="3" style="stroke: #383838; stroke-width: 1.0;" width="103" x="595" y="1259.73"/><rect fill="#F8F8F8" height="5" style="stroke: #383838; stroke-width: 1.0;" width="10" x="590" y="1264.73"/><rect fill="#F8F8F8" height="5" style="stroke: #383838; stroke-width: 1.0;" width="10" x="590" y="1284.2144"/><text fill="#000000" font-family="Tahoma, sans-serif" font-size="12" lengthAdjust="spacingAndGlyphs" textLength="83" x="605" y="1281.7359">lodash/lodash</text><!--MD5=[254cd27907fdc97c5e11c0e472fc704e]
entity pretty-bytes--><rect fill="#F8F8F8" height="34.4844" rx="3" ry="3" style="stroke: #383838; stroke-width: 1.0;" width="88" x="602.5" y="1467.73"/><rect fill="#F8F8F8" height="5" style="stroke: #383838; stroke-width: 1.0;" width="10" x="597.5" y="1472.73"/><rect fill="#F8F8F8" height="5" style="stroke: #383838; stroke-width: 1.0;" width="10" x="597.5" y="1492.2144"/><text fill="#000000" font-family="Tahoma, sans-serif" font-size="12" lengthAdjust="spacingAndGlyphs" textLength="68" x="612.5" y="1489.7359">pretty-bytes</text><!--MD5=[cb3d66c929489a99ecf6c8633ae21583]
entity react--><rect fill="#F8F8F8" height="34.4844" rx="3" ry="3" style="stroke: #383838; stroke-width: 1.0;" width="49" x="622" y="1363.73"/><rect fill="#F8F8F8" height="5" style="stroke: #383838; stroke-width: 1.0;" width="10" x="617" y="1368.73"/><rect fill="#F8F8F8" height="5" style="stroke: #383838; stroke-width: 1.0;" width="10" x="617" y="1388.2144"/><text fill="#000000" font-family="Tahoma, sans-serif" font-size="12" lengthAdjust="spacingAndGlyphs" textLength="29" x="632" y="1385.7359">react</text><!--MD5=[7a87f47ef40d6587eff4ec588325b680]
entity react-dom--><rect fill="#F8F8F8" height="34.4844" rx="3" ry="3" style="stroke: #383838; stroke-width: 1.0;" width="80" x="606.5" y="999.73"/><rect fill="#F8F8F8" height="5" style="stroke: #383838; stroke-width: 1.0;" width="10" x="601.5" y="1004.73"/><rect fill="#F8F8F8" height="5" style="stroke: #383838; stroke-width: 1.0;" width="10" x="601.5" y="1024.2144"/><text fill="#000000" font-family="Tahoma, sans-serif" font-size="12" lengthAdjust="spacingAndGlyphs" textLength="60" x="616.5" y="1021.7359">react-dom</text><!--MD5=[9023bb63508a2d7cb7db865e0f1125ed]
entity xlsx--><rect fill="#F8F8F8" height="34.4844" rx="3" ry="3" style="stroke: #383838; stroke-width: 1.0;" width="42" x="625.5" y="1207.73"/><rect fill="#F8F8F8" height="5" style="stroke: #383838; stroke-width: 1.0;" width="10" x="620.5" y="1212.73"/><rect fill="#F8F8F8" height="5" style="stroke: #383838; stroke-width: 1.0;" width="10" x="620.5" y="1232.2144"/><text fill="#000000" font-family="Tahoma, sans-serif" font-size="12" lengthAdjust="spacingAndGlyphs" textLength="22" x="635.5" y="1229.7359">xlsx</text><ellipse cx="29.1446" cy="413.6457" fill="#F8F8F8" rx="14.1446" ry="11.9157" style="stroke: #383838; stroke-width: 0.5;"/><text fill="#000000" font-family="Tahoma, sans-serif" font-size="12" font-weight="bold" lengthAdjust="spacingAndGlyphs" textLength="13" x="22.6446" y="417.3879">js</text><ellipse cx="429.2187" cy="1579.8737" fill="#F8F8F8" rx="56.2187" ry="13.6437" style="stroke: #383838; stroke-width: 0.5;"/><text fill="#000000" font-family="Tahoma, sans-serif" font-size="12" lengthAdjust="spacingAndGlyphs" textLength="78" x="390.2187" y="1583.6159">action_dialog</text><ellipse cx="428.771" cy="1951.5872" fill="#F8F8F8" rx="54.771" ry="13.3542" style="stroke: #383838; stroke-width: 0.5;"/><text fill="#000000" font-family="Tahoma, sans-serif" font-size="12" lengthAdjust="spacingAndGlyphs" textLength="74" x="391.771" y="1955.3294">action_panel</text><!--MD5=[bc9d4b009e30de9083e6c7ca51b9554a]
entity _bulk_content_modal--><rect fill="#F8F8F8" height="34.4844" rx="3" ry="3" style="stroke: #000000; stroke-width: 0.5;" width="137" x="199" y="891.73"/><text fill="#000000" font-family="Tahoma, sans-serif" font-size="12" lengthAdjust="spacingAndGlyphs" textLength="117" x="209" y="913.7359">bulk_content_modal</text><!--MD5=[763ff56de0bd4952dd6e34dbfb22d94a]
entity _content--><rect fill="#F8F8F8" height="34.4844" rx="3" ry="3" style="stroke: #000000; stroke-width: 0.5;" width="64" x="93" y="936.73"/><text fill="#000000" font-family="Tahoma, sans-serif" font-size="12" lengthAdjust="spacingAndGlyphs" textLength="44" x="103" y="958.7359">content</text><!--MD5=[5992c8ba67c0a3773fcbfb1be76133b3]
entity _content_modal--><rect fill="#F8F8F8" height="34.4844" rx="3" ry="3" style="stroke: #000000; stroke-width: 0.5;" width="107" x="214" y="649.73"/><text fill="#000000" font-family="Tahoma, sans-serif" font-size="12" lengthAdjust="spacingAndGlyphs" textLength="87" x="224" y="671.7359">content_modal</text><!--MD5=[69599b8a3cc826a8f761705ce5e0a3f7]
entity _content_search--><rect fill="#F8F8F8" height="34.4844" rx="3" ry="3" style="stroke: #000000; stroke-width: 0.5;" width="110" x="212.5" y="1819.733"/><text fill="#000000" font-family="Tahoma, sans-serif" font-size="12" lengthAdjust="spacingAndGlyphs" textLength="90" x="222.5" y="1841.7389">content_search</text><!--MD5=[7a98ed291746b98d6a43febf64018c41]
entity _global_state--><rect fill="#F8F8F8" height="34.4844" rx="3" ry="3" style="stroke: #000000; stroke-width: 0.5;" width="91" x="222" y="396.73"/><text fill="#000000" font-family="Tahoma, sans-serif" font-size="12" lengthAdjust="spacingAndGlyphs" textLength="71" x="232" y="418.7359">global_state</text><!--MD5=[a819c1b01a1b1258ce70492e8aed08d2]
entity _home_screen--><rect fill="#F8F8F8" height="34.4844" rx="3" ry="3" style="stroke: #000000; stroke-width: 0.5;" width="99" x="379.5" y="2235.733"/><text fill="#000000" font-family="Tahoma, sans-serif" font-size="12" lengthAdjust="spacingAndGlyphs" textLength="79" x="389.5" y="2257.7389">home_screen</text><!--MD5=[e972f73e649d1d3fe4e5f0333ca0cd70]
entity _kebab_menu--><rect fill="#F8F8F8" height="34.4844" rx="3" ry="3" style="stroke: #000000; stroke-width: 0.5;" width="93" x="221" y="1763.733"/><text fill="#000000" font-family="Tahoma, sans-serif" font-size="12" lengthAdjust="spacingAndGlyphs" textLength="73" x="231" y="1785.7389">kebab_menu</text><!--MD5=[e31400d02d592da14fe4709663c89c92]
entity _libraries--><rect fill="#F8F8F8" height="34.4844" rx="3" ry="3" style="stroke: #000000; stroke-width: 0.5;" width="65" x="92.5" y="1625.73"/><text fill="#000000" font-family="Tahoma, sans-serif" font-size="12" lengthAdjust="spacingAndGlyphs" textLength="45" x="102.5" y="1647.7359">libraries</text><!--MD5=[24a92963bb32e2e4fa84ea952b9cadb9]
entity _library_assets--><rect fill="#F8F8F8" height="34.4844" rx="3" ry="3" style="stroke: #000000; stroke-width: 0.5;" width="100" x="217.5" y="1185.73"/><text fill="#000000" font-family="Tahoma, sans-serif" font-size="12" lengthAdjust="spacingAndGlyphs" textLength="80" x="227.5" y="1207.7359">library_assets</text><!--MD5=[af5cb3804056239c377869505338e241]
entity _library_images--><rect fill="#F8F8F8" height="34.4844" rx="3" ry="3" style="stroke: #000000; stroke-width: 0.5;" width="103" x="216" y="2097.733"/><text fill="#000000" font-family="Tahoma, sans-serif" font-size="12" lengthAdjust="spacingAndGlyphs" textLength="83" x="226" y="2119.7389">library_images</text><!--MD5=[59a35b4d5d050d6b1f2f858199dbcd8d]
entity _library_modules--><rect fill="#F8F8F8" height="34.4844" rx="3" ry="3" style="stroke: #000000; stroke-width: 0.5;" width="111" x="212" y="1057.73"/><text fill="#000000" font-family="Tahoma, sans-serif" font-size="12" lengthAdjust="spacingAndGlyphs" textLength="91" x="222" y="1079.7359">library_modules</text><ellipse cx="28.799" cy="1609.972" fill="#F8F8F8" rx="22.799" ry="13.242" style="stroke: #383838; stroke-width: 0.5;"/><text fill="#000000" font-family="Tahoma, sans-serif" font-size="12" lengthAdjust="spacingAndGlyphs" textLength="28" x="14.799" y="1613.7142">main</text><!--MD5=[56acb3588c618fa96a29d8c7d38a0c5d]
entity _metadata--><rect fill="#F8F8F8" height="34.4844" rx="3" ry="3" style="stroke: #000000; stroke-width: 0.5;" width="74" x="88" y="1558.73"/><text fill="#000000" font-family="Tahoma, sans-serif" font-size="12" lengthAdjust="spacingAndGlyphs" textLength="54" x="98" y="1580.7359">metadata</text><!--MD5=[84f1ef8d2b4356add4b8dd647f5f60f1]
entity _system_info--><rect fill="#F8F8F8" height="34.4844" rx="3" ry="3" style="stroke: #000000; stroke-width: 0.5;" width="91" x="383.5" y="2630.7333"/><text fill="#000000" font-family="Tahoma, sans-serif" font-size="12" lengthAdjust="spacingAndGlyphs" textLength="71" x="393.5" y="2652.7392">system_info</text><ellipse cx="428.8492" cy="584.972" fill="#F8F8F8" rx="17.8492" ry="13.242" style="stroke: #383838; stroke-width: 0.5;"/><text fill="#000000" font-family="Tahoma, sans-serif" font-size="12" lengthAdjust="spacingAndGlyphs" textLength="21" x="418.3492" y="588.7142">urls</text><ellipse cx="428.9706" cy="760.972" fill="#F8F8F8" rx="19.9706" ry="13.242" style="stroke: #383838; stroke-width: 0.5;"/><text fill="#000000" font-family="Tahoma, sans-serif" font-size="12" lengthAdjust="spacingAndGlyphs" textLength="24" x="416.9706" y="764.7142">utils</text><!--MD5=[4942a1e327e813353a772ca9d2676b5a]
entity _validators--><rect fill="#F8F8F8" height="34.4844" rx="3" ry="3" style="stroke: #000000; stroke-width: 0.5;" width="76" x="391" y="943.73"/><text fill="#000000" font-family="Tahoma, sans-serif" font-size="12" lengthAdjust="spacingAndGlyphs" textLength="56" x="401" y="965.7359">validators</text><!--MD5=[2065bc1e78742fb0849f7cbc42f3894d]
entity _view_content_modal--><rect fill="#F8F8F8" height="34.4844" rx="3" ry="3" style="stroke: #000000; stroke-width: 0.5;" width="139" x="198" y="1641.73"/><text fill="#000000" font-family="Tahoma, sans-serif" font-size="12" lengthAdjust="spacingAndGlyphs" textLength="119" x="208" y="1663.7359">view_content_modal</text><!--MD5=[a4b7c43675c1e088af946fe8187d33ca]
link action_dialog to @material-ui--><path d="M437.076,1593.11 C463.529,1643.08 555.244,1816.086 558,1817.733 C558.382,1817.961 558.681,1818.042 559,1817.733 C587.689,1789.987 547.351,1490.88 571,1458.73 C576.945,1450.65 585.585,1445.07 594.892,1441.21 " fill="none" id="action_dialog-&gt;@material-ui" style="stroke: #000000; stroke-width: 0.5;"/><polygon fill="#000000" points="599.809,1439.35,589.976,1438.791,595.1321,1441.1181,592.805,1446.2742,599.809,1439.35" style="stroke: #000000; stroke-width: 0.5;"/><!--MD5=[ffa7a6985d883f1cce4bb93c58efc7d6]
link action_dialog to react--><path d="M457.329,1568.02 C466.504,1563.52 476.545,1557.96 485,1551.73 C522.96,1523.78 537.559,1517.72 559,1475.73 C573.156,1448.01 550.862,1430.47 571,1406.73 C582.307,1393.41 600.847,1386.91 616.602,1383.74 " fill="none" id="action_dialog-&gt;react" style="stroke: #000000; stroke-width: 0.5;"/><polygon fill="#000000" points="621.824,1382.78,612.252,1380.4613,616.9053,1383.678,613.6887,1388.3313,621.824,1382.78" style="stroke: #000000; stroke-width: 0.5;"/><!--MD5=[4fdf1a417f82c03881af2f20fd4f6844]
link action_panel to @material-ui--><path d="M451.579,1964.055 C480.233,1978.606 530.53,1997.543 559,1969.733 C579.314,1949.891 554.287,1481.69 571,1458.73 C576.904,1450.62 585.528,1445.02 594.831,1441.17 " fill="none" id="action_panel-&gt;@material-ui" style="stroke: #000000; stroke-width: 0.5;"/><polygon fill="#000000" points="599.747,1439.3,589.9133,1438.7536,595.0723,1441.0741,592.7519,1446.2331,599.747,1439.3" style="stroke: #000000; stroke-width: 0.5;"/><!--MD5=[473d8d4b1475b36263a26e9567de52b5]
link action_panel to react--><path d="M484.074,1950.684 C498.139,1947.796 512.103,1942.171 522,1931.733 C592.635,1857.238 548.687,1805.873 559,1703.733 C560.659,1687.3 561.169,1420 571,1406.73 C581.551,1392.49 600.465,1386.01 616.595,1383.07 " fill="none" id="action_panel-&gt;react" style="stroke: #000000; stroke-width: 0.5;"/><polygon fill="#000000" points="621.942,1382.21,612.4181,1379.701,617.0064,1383.0097,613.6976,1387.598,621.942,1382.21" style="stroke: #000000; stroke-width: 0.5;"/><!--MD5=[ef2deefe45297ac57b2652030d348491]
link _bulk_content_modal to @devexpress--><path d="M318.248,891.61 C365.38,878.73 436.045,868.39 485,901.73 C559.218,952.28 539.787,1002.02 559,1089.73 C564.072,1112.89 556.737,1283.8 571,1302.73 C576.564,1310.12 584.373,1315.42 592.857,1319.22 " fill="none" id="_bulk_content_modal-&gt;@devexpress" style="stroke: #000000; stroke-width: 0.5;"/><polygon fill="#000000" points="597.63,1321.18,590.8213,1314.0637,593.004,1319.2825,587.7853,1321.4653,597.63,1321.18" style="stroke: #000000; stroke-width: 0.5;"/><!--MD5=[5233fc380c3aaf8ef65483864a64020a]
link _bulk_content_modal to @material-ui--><path d="M277.801,926.12 C291.624,952.3 317.999,1003.59 337,1048.73 C413.135,1229.6 427.055,1277.24 485,1464.73 C522.593,1586.37 457.154,1664.02 558,1741.733 C582.933,1760.947 552.235,1484.01 571,1458.73 C576.981,1450.68 585.637,1445.1 594.947,1441.25 " fill="none" id="_bulk_content_modal-&gt;@material-ui" style="stroke: #000000; stroke-width: 0.5;"/><polygon fill="#000000" points="599.865,1439.39,590.0322,1438.8284,595.1876,1441.1569,592.8591,1446.3123,599.865,1439.39" style="stroke: #000000; stroke-width: 0.5;"/><!--MD5=[70d2975bec98f163a36e3a2b27f53a60]
link _bulk_content_modal to action_dialog--><path d="M279.485,926.04 C295.181,951.72 323.604,1001.91 337,1048.73 C380.13,1199.5 341.941,1246.02 373,1399.73 C385.163,1459.93 409.112,1528.76 420.985,1561.1 " fill="none" id="_bulk_content_modal-&gt;action_dialog" style="stroke: #000000; stroke-width: 0.5;"/><polygon fill="#000000" points="422.783,1565.97,423.4247,1556.1421,421.0543,1561.2783,415.9181,1558.9079,422.783,1565.97" style="stroke: #000000; stroke-width: 0.5;"/><!--MD5=[258de08003d5a380fa53cd32ced921fa]
link _bulk_content_modal to axios--><path d="M274.132,891.72 C286.122,855.34 314.885,767.22 337,692.73 C354.064,635.26 340.658,613.21 373,562.73 C425.685,480.5 496.912,370.35 559,445.73 C580.09,471.34 551.522,1015.88 571,1042.73 C581.19,1056.78 599.538,1063.29 615.474,1066.29 " fill="none" id="_bulk_content_modal-&gt;axios" style="stroke: #000000; stroke-width: 0.5;"/><polygon fill="#000000" points="620.771,1067.17,612.5556,1061.7379,615.8397,1066.3438,611.2338,1069.6279,620.771,1067.17" style="stroke: #000000; stroke-width: 0.5;"/><!--MD5=[03c6e5ad3f2869adac39c3cacc0cfd77]
link _bulk_content_modal to lodash/lodash--><path d="M325.388,891.73 C329.363,890.16 333.27,888.49 337,886.73 C354.181,878.65 354.775,869.06 373,863.73 C452.349,840.55 499.647,806.19 559,863.73 C589.888,893.68 545.55,1216.05 571,1250.73 C575.899,1257.41 582.639,1262.38 590.077,1266.09 " fill="none" id="_bulk_content_modal-&gt;lodash/lodash" style="stroke: #000000; stroke-width: 0.5;"/><polygon fill="#000000" points="594.788,1268.23,588.2586,1260.8566,590.2386,1266.1556,584.9396,1268.1356,594.788,1268.23" style="stroke: #000000; stroke-width: 0.5;"/><!--MD5=[282574ea0397035da38d34aa5e475502]
link _bulk_content_modal to react--><path d="M336.254,909.37 C390.973,911.22 462.45,917.09 485,934.73 C558.013,991.85 539.859,1039.03 559,1129.73 C564.17,1154.23 555.966,1334.71 571,1354.73 C581.569,1368.81 600.294,1375.3 616.326,1378.28 " fill="none" id="_bulk_content_modal-&gt;react" style="stroke: #000000; stroke-width: 0.5;"/><polygon fill="#000000" points="621.644,1379.16,613.421,1373.7395,616.7116,1378.3408,612.1103,1381.6314,621.644,1379.16" style="stroke: #000000; stroke-width: 0.5;"/><!--MD5=[5619d63f2c0100b2c7a55f0395cf37e7]
link _bulk_content_modal to urls--><path d="M277.075,891.31 C304.901,834.79 392.449,656.95 419.771,601.45 " fill="none" id="_bulk_content_modal-&gt;urls" style="stroke: #000000; stroke-width: 0.5;"/><polygon fill="#000000" points="422.077,596.76,414.5226,603.0791,419.8753,601.2492,421.7053,606.6018,422.077,596.76" style="stroke: #000000; stroke-width: 0.5;"/><!--MD5=[f61a9c4e896471e3766490dc3f17061d]
link _bulk_content_modal to utils--><path d="M315.47,891.61 C323.095,887.7 330.584,883.08 337,877.73 C358.587,859.73 355.902,848.04 373,825.73 C386.527,808.08 403.149,788.73 414.557,775.77 " fill="none" id="_bulk_content_modal-&gt;utils" style="stroke: #000000; stroke-width: 0.5;"/><polygon fill="#000000" points="417.921,771.96,408.9622,776.0513,414.6084,775.7052,414.9545,781.3515,417.921,771.96" style="stroke: #000000; stroke-width: 0.5;"/><!--MD5=[a294585f5e02e35cba73cdebfcf9e511]
link _content to @material-ui--><path d="M127.046,970.97 C135.9,1116.94 198,2140.733 198,2140.733 C266.828,2218.691 324.007,2183.733 428,2183.733 C428,2183.733 428,2183.733 522,2183.733 C541.601,2183.733 549.496,2176.876 559,2159.733 C577.887,2125.669 548.177,1490.3 571,1458.73 C576.879,1450.6 585.491,1445 594.791,1441.14 " fill="none" id="_content-&gt;@material-ui" style="stroke: #000000; stroke-width: 0.5;"/><polygon fill="#000000" points="599.707,1439.27,589.8733,1438.7236,595.0323,1441.0441,592.7119,1446.2031,599.707,1439.27" style="stroke: #000000; stroke-width: 0.5;"/><!--MD5=[c8b32df500c677b64198f8771493c84f]
link _content to action_dialog--><path d="M128.493,970.8 C135.359,1014.96 156.824,1136.05 198,1228.73 C259.712,1367.64 373.6,1513.27 413.631,1562.4 " fill="none" id="_content-&gt;action_dialog" style="stroke: #000000; stroke-width: 0.5;"/><polygon fill="#000000" points="416.829,1566.31,414.2182,1556.8135,413.6598,1562.4427,408.0306,1561.8842,416.829,1566.31" style="stroke: #000000; stroke-width: 0.5;"/><!--MD5=[0c884f15070f6436a551232a5ac1b82a]
link _content to axios--><path d="M125.677,936.69 C124.13,839.38 120.451,354.09 198,231.73 C261.816,131.04 308.789,93.73 428,93.73 C428,93.73 428,93.73 522,93.73 C590.716,93.73 554.241,332.18 559,400.73 C560.235,418.53 560.537,1028.29 571,1042.73 C581.18,1056.79 599.528,1063.3 615.467,1066.29 " fill="none" id="_content-&gt;axios" style="stroke: #000000; stroke-width: 0.5;"/><polygon fill="#000000" points="620.765,1067.18,612.5481,1061.7502,615.8335,1066.3552,611.2285,1069.6406,620.765,1067.18" style="stroke: #000000; stroke-width: 0.5;"/><!--MD5=[32fa277bc7f78423dd7502072d91fc45]
link _content to _bulk_content_modal--><path d="M157.182,943.75 C172.256,938.92 190.851,932.96 208.402,927.34 " fill="none" id="_content-&gt;_bulk_content_modal" style="stroke: #000000; stroke-width: 0.5;"/><polygon fill="#000000" points="213.32,925.77,203.5296,924.6985,208.5571,927.2916,205.9641,932.3191,213.32,925.77" style="stroke: #000000; stroke-width: 0.5;"/><!--MD5=[6b1546755acba5404516e629ff5f5f64]
link _content to _content_modal--><path d="M128.896,936.47 C135.917,898.04 156.412,803.51 198,735.73 C209.297,717.32 226.417,700.08 240.715,687.43 " fill="none" id="_content-&gt;_content_modal" style="stroke: #000000; stroke-width: 0.5;"/><polygon fill="#000000" points="244.665,683.99,235.2509,686.884,240.8943,687.2736,240.5047,692.917,244.665,683.99" style="stroke: #000000; stroke-width: 0.5;"/><!--MD5=[b19602af92badda59ccecbaa9814eb44]
link _content to _content_search--><path d="M126.943,970.77 C133.495,1087.97 172.703,1771.382 198,1806.733 C200.769,1810.604 204.15,1813.981 207.911,1816.926 " fill="none" id="_content-&gt;_content_search" style="stroke: #000000; stroke-width: 0.5;"/><polygon fill="#000000" points="212.485,1820.19,207.4824,1811.7062,208.415,1817.2857,202.8355,1818.2183,212.485,1820.19" style="stroke: #000000; stroke-width: 0.5;"/><!--MD5=[54d029617a906735098516d001727f0f]
link _content to lodash/lodash--><path d="M156.125,936.59 C158.184,935.04 160.166,933.42 162,931.73 C181.904,913.45 175.774,898.11 198,882.73 C264.271,836.9 515.986,780.6 559,848.73 C582.855,886.52 544.585,1214.69 571,1250.73 C575.895,1257.41 582.633,1262.39 590.07,1266.09 " fill="none" id="_content-&gt;lodash/lodash" style="stroke: #000000; stroke-width: 0.5;"/><polygon fill="#000000" points="594.781,1268.24,588.2429,1260.8743,590.2292,1266.171,584.9325,1268.1572,594.781,1268.24" style="stroke: #000000; stroke-width: 0.5;"/><!--MD5=[93170440c222864e8fd02c85b02e4469]
link _content to react--><path d="M129.098,971.15 C135.682,1002.62 154.207,1068.67 198,1100.73 C302.064,1176.93 370.225,1084.89 485,1143.73 C505.976,1154.49 510.205,1161.32 522,1181.73 C541.994,1216.33 543.603,1325.65 571,1354.73 C582.899,1367.37 601.264,1373.86 616.783,1377.2 " fill="none" id="_content-&gt;react" style="stroke: #000000; stroke-width: 0.5;"/><polygon fill="#000000" points="621.923,1378.22,613.8664,1372.5551,617.0174,1377.2531,612.3194,1380.4041,621.923,1378.22" style="stroke: #000000; stroke-width: 0.5;"/><!--MD5=[5c85f4792ab88c7c8e739bb972088243]
link _content to urls--><path d="M126.974,936.52 C130.95,872.93 148.168,652.57 198,607.73 C257.031,554.62 362.219,569.87 406.942,579.54 " fill="none" id="_content-&gt;urls" style="stroke: #000000; stroke-width: 0.5;"/><polygon fill="#000000" points="411.838,580.63,403.9184,574.7751,406.9568,579.5467,402.1851,582.5851,411.838,580.63" style="stroke: #000000; stroke-width: 0.5;"/><!--MD5=[b5387fae7193ceda375196f5d3289f8e]
link _content to utils--><path d="M127.056,936.47 C130.344,899.48 143.756,812.74 198,773.73 C261.159,728.32 361.115,744.41 405.494,754.76 " fill="none" id="_content-&gt;utils" style="stroke: #000000; stroke-width: 0.5;"/><polygon fill="#000000" points="410.372,755.93,402.5467,749.9496,405.5086,754.7691,400.6892,757.731,410.372,755.93" style="stroke: #000000; stroke-width: 0.5;"/><!--MD5=[68c14fe39d59aa16d4a6afdbba80637d]
link _content to _validators--><path d="M157.182,954.46 C211.711,955.72 324.421,958.33 385.846,959.76 " fill="none" id="_content-&gt;_validators" style="stroke: #000000; stroke-width: 0.5;"/><polygon fill="#000000" points="390.903,959.87,381.9992,955.6603,385.9044,959.7529,381.8118,963.6581,390.903,959.87" style="stroke: #000000; stroke-width: 0.5;"/><!--MD5=[6e6f2250464fd37dfac23573b47b3136]
link _content to _view_content_modal--><path d="M129.403,970.81 C148.34,1065.83 240.638,1528.96 262.055,1636.43 " fill="none" id="_content-&gt;_view_content_modal" style="stroke: #000000; stroke-width: 0.5;"/><polygon fill="#000000" points="263.079,1641.57,265.254,1631.9643,262.1075,1636.6653,257.4065,1633.5187,263.079,1641.57" style="stroke: #000000; stroke-width: 0.5;"/><!--MD5=[ff96387dad7890978ce27945e8b17745]
link _content_modal to @material-ui--><path d="M311.981,683.74 C330.657,690.85 352.793,699 373,705.73 C422.229,722.15 451.326,699.25 485,738.73 C679.244,966.49 382.422,1174.26 571,1406.73 C577.173,1414.34 585.713,1419.73 594.815,1423.54 " fill="none" id="_content_modal-&gt;@material-ui" style="stroke: #000000; stroke-width: 0.5;"/><polygon fill="#000000" points="599.617,1425.4,592.6589,1418.4297,594.9519,1423.601,589.7805,1425.8939,599.617,1425.4" style="stroke: #000000; stroke-width: 0.5;"/><!--MD5=[32db215c418c34fd2430b6fd306ffe09]
link _content_modal to action_dialog--><path d="M275.062,683.81 C288.694,719.95 320.203,807.07 337,882.73 C395.877,1147.94 421.169,1478.96 426.765,1560.79 " fill="none" id="_content_modal-&gt;action_dialog" style="stroke: #000000; stroke-width: 0.5;"/><polygon fill="#000000" points="427.105,1565.82,430.4785,1556.5669,426.7622,1560.8318,422.4973,1557.1154,427.105,1565.82" style="stroke: #000000; stroke-width: 0.5;"/><!--MD5=[fd91918b284026bdca222bb17d596f13]
link _content_modal to axios--><path d="M274.32,649.51 C287.074,614.01 320.602,531.82 373,481.73 C434.88,422.59 518.103,356.53 559,431.73 C575.221,461.56 551.071,1015.25 571,1042.73 C581.186,1056.78 599.534,1063.29 615.472,1066.29 " fill="none" id="_content_modal-&gt;axios" style="stroke: #000000; stroke-width: 0.5;"/><polygon fill="#000000" points="620.769,1067.17,612.5496,1061.7441,615.8371,1066.3475,611.2336,1069.6351,620.769,1067.17" style="stroke: #000000; stroke-width: 0.5;"/><!--MD5=[4c34a5fc043e7080b41dcd195c3a3b98]
link _content_modal to date-fns--><path d="M279.466,649.48 C296.194,624.93 330.655,580.89 373,562.73 C449.462,529.95 519.113,510.73 559,583.73 C572.615,608.65 554.287,1071.78 571,1094.73 C579.473,1106.37 593.545,1112.84 607.19,1116.41 " fill="none" id="_content_modal-&gt;date-fns" style="stroke: #000000; stroke-width: 0.5;"/><polygon fill="#000000" points="612.187,1117.61,604.3584,1111.634,607.323,1116.4518,602.5052,1119.4164,612.187,1117.61" style="stroke: #000000; stroke-width: 0.5;"/><!--MD5=[095085a4a5508e1a09c1bb46d4c2f448]
link _content_modal to lodash/lodash--><path d="M321.277,655.67 C385.904,643.39 490.652,627.98 522,649.73 C560.593,676.51 550.093,702.61 559,748.73 C564.29,776.12 554.577,1228.18 571,1250.73 C575.875,1257.43 582.603,1262.41 590.035,1266.12 " fill="none" id="_content_modal-&gt;lodash/lodash" style="stroke: #000000; stroke-width: 0.5;"/><polygon fill="#000000" points="594.744,1268.26,588.2185,1260.8832,590.1957,1266.1832,584.8956,1268.1605,594.744,1268.26" style="stroke: #000000; stroke-width: 0.5;"/><!--MD5=[8a01f9679b1f42202c7d6b518c64c93d]
link _content_modal to react--><path d="M321.088,660.73 C370.301,658.26 442.441,663.22 485,705.73 C615.392,835.97 537.929,930.65 559,1113.73 C562.065,1140.37 554.937,1333.27 571,1354.73 C581.618,1368.92 600.531,1375.41 616.644,1378.36 " fill="none" id="_content_modal-&gt;react" style="stroke: #000000; stroke-width: 0.5;"/><polygon fill="#000000" points="621.984,1379.23,613.7457,1373.8327,617.0493,1378.4247,612.4573,1381.7283,621.984,1379.23" style="stroke: #000000; stroke-width: 0.5;"/><!--MD5=[36f6a578e533caadd9299b38863869f8]
link _content_modal to urls--><path d="M309.245,649.61 C318.512,645.36 328.211,640.61 337,635.73 C353.815,626.4 356.333,621.32 373,611.73 C384.513,605.11 397.881,598.52 408.555,593.51 " fill="none" id="_content_modal-&gt;urls" style="stroke: #000000; stroke-width: 0.5;"/><polygon fill="#000000" points="413.253,591.33,403.4057,591.5027,408.7203,593.4405,406.7825,598.7551,413.253,591.33" style="stroke: #000000; stroke-width: 0.5;"/><!--MD5=[e1984be7288a3383a2b804fee1e2dd6d]
link _content_modal to utils--><path d="M312.535,683.81 C320.959,687.86 329.485,692.53 337,697.73 C355.609,710.61 354.596,720.57 373,733.73 C383.354,741.14 396.047,747.52 406.629,752.22 " fill="none" id="_content_modal-&gt;utils" style="stroke: #000000; stroke-width: 0.5;"/><polygon fill="#000000" points="411.326,754.26,404.6603,747.0096,406.7387,752.2708,401.4775,754.3492,411.326,754.26" style="stroke: #000000; stroke-width: 0.5;"/><!--MD5=[0b78db13e1ec718d9f1c465051d5888f]
link _content_search to @devexpress--><path d="M322.542,1819.752 C328.058,1816.19 333.067,1811.898 337,1806.733 C404.741,1717.771 315.395,1653.57 373,1557.73 C404.782,1504.86 441.685,1519.66 485,1475.73 C531.323,1428.75 518.251,1394.36 571,1354.73 C577.621,1349.76 585.27,1345.68 593.091,1342.36 " fill="none" id="_content_search-&gt;@devexpress" style="stroke: #000000; stroke-width: 0.5;"/><polygon fill="#000000" points="597.976,1340.39,588.1327,1340.0578,593.3411,1342.2654,591.1334,1347.4737,597.976,1340.39" style="stroke: #000000; stroke-width: 0.5;"/><!--MD5=[661265ef490a9da24ebbdf073327664b]
link _content_search to @material-ui--><path d="M273.815,1854.005 C286.179,1894.626 317.313,1999.525 337,2088.733 C347.25,2135.182 336.647,2269.057 373,2299.733 C411.043,2331.835 437.539,2314.741 485,2299.733 C524.071,2287.378 540.784,2281.44 559,2244.733 C578.413,2205.614 545.443,1494.15 571,1458.73 C576.871,1450.6 585.48,1444.99 594.78,1441.13 " fill="none" id="_content_search-&gt;@material-ui" style="stroke: #000000; stroke-width: 0.5;"/><polygon fill="#000000" points="599.695,1439.26,589.8612,1438.7162,595.0208,1441.0353,592.7017,1446.195,599.695,1439.26" style="stroke: #000000; stroke-width: 0.5;"/><!--MD5=[0d3f95f58391be32d4bd7d0585301f61]
link _content_search to action_panel--><path d="M303.708,1853.828 C314.974,1860.176 327.085,1867.988 337,1876.733 C356.732,1894.14 352.774,1906.903 373,1923.733 C379.548,1929.182 387.333,1933.947 394.955,1937.927 " fill="none" id="_content_search-&gt;action_panel" style="stroke: #000000; stroke-width: 0.5;"/><polygon fill="#000000" points="399.668,1940.303,393.4304,1932.6812,395.2027,1938.0532,389.8307,1939.8256,399.668,1940.303" style="stroke: #000000; stroke-width: 0.5;"/><!--MD5=[f4f2e396d15e325a1bd1d549459623c5]
link _content_search to pretty-bytes--><path d="M274.086,1853.948 C287.029,1894.448 319.309,1999.108 337,2088.733 C349.49,2152.01 327.317,2331.202 373,2376.733 C431.741,2435.28 499.942,2449.96 559,2391.733 C624.063,2327.586 642.143,1640.42 645.049,1507.08 " fill="none" id="_content_search-&gt;pretty-bytes" style="stroke: #000000; stroke-width: 0.5;"/><polygon fill="#000000" points="645.161,1501.85,640.9564,1510.7562,645.0467,1506.8487,648.9543,1510.9391,645.161,1501.85" style="stroke: #000000; stroke-width: 0.5;"/><!--MD5=[7553df6d589d26d5f34ddfd364e9ea6a]
link _content_search to react--><path d="M322.577,1834.978 C369.466,1831.006 437.132,1819.139 485,1784.733 C545.687,1741.114 542.866,1706.708 559,1633.73 C564.453,1609.07 555.837,1426.93 571,1406.73 C581.64,1392.56 600.553,1386.07 616.66,1383.12 " fill="none" id="_content_search-&gt;react" style="stroke: #000000; stroke-width: 0.5;"/><polygon fill="#000000" points="621.998,1382.25,612.4713,1379.7517,617.0633,1383.0553,613.7597,1387.6473,621.998,1382.25" style="stroke: #000000; stroke-width: 0.5;"/><!--MD5=[3432bed136d8dfafde051b2b71ec35b2]
link _content_search to utils--><path d="M322.739,1820.346 C328.297,1816.678 333.263,1812.199 337,1806.733 C391.725,1726.679 356.24,1030.25 373,934.73 C383.352,875.74 408.412,808.98 420.809,778.1 " fill="none" id="_content_search-&gt;utils" style="stroke: #000000; stroke-width: 0.5;"/><polygon fill="#000000" points="422.828,773.11,415.7497,779.9582,420.9563,777.7464,423.1681,782.953,422.828,773.11" style="stroke: #000000; stroke-width: 0.5;"/><!--MD5=[b50dd84e75c9a884177714dbfea26e10]
link _global_state to @devexpress--><path d="M313.262,415.13 C370.799,419.5 469.519,436.16 522,497.73 C588.593,575.86 549.688,623.5 559,725.73 C560.454,741.7 561.582,1289.76 571,1302.73 C576.5,1310.31 584.373,1315.69 592.96,1319.52 " fill="none" id="_global_state-&gt;@devexpress" style="stroke: #000000; stroke-width: 0.5;"/><polygon fill="#000000" points="597.794,1321.48,590.9665,1314.3818,593.163,1319.5947,587.9501,1321.7913,597.794,1321.48" style="stroke: #000000; stroke-width: 0.5;"/><!--MD5=[07c426df8ecace6e227ba09e3fac23cc]
link _global_state to axios--><path d="M276.389,396.33 C290.757,367.05 324.275,308.85 373,285.73 C417.971,264.39 442.009,260.64 485,285.73 C542.753,319.44 541.378,352.23 559,416.73 C568.167,450.29 550.589,1014.57 571,1042.73 C581.183,1056.79 599.531,1063.3 615.469,1066.29 " fill="none" id="_global_state-&gt;axios" style="stroke: #000000; stroke-width: 0.5;"/><polygon fill="#000000" points="620.767,1067.18,612.5476,1061.7541,615.8351,1066.3575,611.2316,1069.6451,620.767,1067.18" style="stroke: #000000; stroke-width: 0.5;"/><!--MD5=[7f8487979ee268ba0ac5b06015f27a81]
link _global_state to date-fns--><path d="M292.284,396.7 C334.8,368.54 424.99,319.39 485,361.73 C565.171,418.3 541.209,473.24 559,569.73 C564.29,598.42 553.837,1071.14 571,1094.73 C579.469,1106.38 593.54,1112.84 607.187,1116.42 " fill="none" id="_global_state-&gt;date-fns" style="stroke: #000000; stroke-width: 0.5;"/><polygon fill="#000000" points="612.184,1117.61,604.3593,1111.6288,607.3208,1116.4485,602.501,1119.41,612.184,1117.61" style="stroke: #000000; stroke-width: 0.5;"/><!--MD5=[688f5784cf89abc3e46f0f4f532c6428]
link _global_state to lodash/lodash--><path d="M313.389,398.21 C359.081,385.21 430.717,372.7 485,399.73 C533.856,424.06 541.245,446.12 559,497.73 C572.611,537.3 546.504,1216.82 571,1250.73 C575.849,1257.45 582.562,1262.44 589.989,1266.15 " fill="none" id="_global_state-&gt;lodash/lodash" style="stroke: #000000; stroke-width: 0.5;"/><polygon fill="#000000" points="594.695,1268.3,588.1733,1260.9198,590.1478,1266.2209,584.8467,1268.1953,594.695,1268.3" style="stroke: #000000; stroke-width: 0.5;"/><!--MD5=[26bbe4c21f39d3866dfd753069b8b5de]
link _global_state to react--><path d="M299.014,430.91 C352.731,461.75 460.8,526.63 485,562.73 C528.298,627.32 507.464,657.35 522,733.73 C540.944,833.29 549.221,857.86 559,958.73 C561.124,980.64 557.986,1336.98 571,1354.73 C581.48,1369.03 600.394,1375.51 616.542,1378.43 " fill="none" id="_global_state-&gt;react" style="stroke: #000000; stroke-width: 0.5;"/><polygon fill="#000000" points="621.896,1379.29,613.6431,1373.9151,616.9591,1378.4981,612.3761,1381.8141,621.896,1379.29" style="stroke: #000000; stroke-width: 0.5;"/><!--MD5=[5a2458d855d0bc6f816c1c900bb1f85a]
link _global_state to urls--><path d="M280.599,430.9 C299.022,456.46 335.898,505.41 373,541.73 C384.774,553.26 399.554,564.67 410.827,572.84 " fill="none" id="_global_state-&gt;urls" style="stroke: #000000; stroke-width: 0.5;"/><polygon fill="#000000" points="415.116,575.91,410.138,567.4118,411.0544,572.9939,405.4723,573.9104,415.116,575.91" style="stroke: #000000; stroke-width: 0.5;"/><!--MD5=[68b61900f15cb7cc862a053964f0bc87]
link _global_state to utils--><path d="M276.41,430.94 C303.617,490.13 393.159,684.93 420.199,743.76 " fill="none" id="_global_state-&gt;utils" style="stroke: #000000; stroke-width: 0.5;"/><polygon fill="#000000" points="422.329,748.4,422.2101,738.5519,420.2433,743.8558,414.9394,741.889,422.329,748.4" style="stroke: #000000; stroke-width: 0.5;"/><!--MD5=[72cf3aabc79e7e3c8a24aa0abd354693]
link _home_screen to @material-ui--><path d="M478.794,2260.37 C506.508,2261.704 539.469,2257.663 559,2235.733 C587.713,2203.494 545.732,1493.74 571,1458.73 C576.872,1450.6 585.481,1444.99 594.781,1441.13 " fill="none" id="_home_screen-&gt;@material-ui" style="stroke: #000000; stroke-width: 0.5;"/><polygon fill="#000000" points="599.696,1439.26,589.8622,1438.7162,595.0218,1441.0353,592.7027,1446.195,599.696,1439.26" style="stroke: #000000; stroke-width: 0.5;"/><!--MD5=[f2fabccbbc74773ccb16e879f4488fb6]
link _home_screen to react--><path d="M456.284,2235.663 C487.514,2213.646 538.026,2172.124 559,2121.733 C574.266,2085.056 547.726,1438.93 571,1406.73 C581.473,1392.24 600.628,1385.77 616.892,1382.91 " fill="none" id="_home_screen-&gt;react" style="stroke: #000000; stroke-width: 0.5;"/><polygon fill="#000000" points="621.834,1382.13,612.3208,1379.5806,616.895,1382.9088,613.5669,1387.483,621.834,1382.13" style="stroke: #000000; stroke-width: 0.5;"/><!--MD5=[ca6821a73be1c72f6635bcbdaad744f8]
link <b>js</b> to @date-io--><path d="M30.0286,401.73 C30.4285,343.77 35.2266,93.41 88,41.73 C145.194,-14.27 186.453,17.73 266.5,17.73 C266.5,17.73 266.5,17.73 522,17.73 C541.601,17.73 548.848,24.97 559,41.73 C607.148,121.26 638.845,809.07 644.567,942.4 " fill="none" id="&lt;b&gt;js&lt;/b&gt;-&gt;@date-io" style="stroke: #000000; stroke-width: 1.0;"/><polygon fill="#000000" points="644.79,947.62,648.4006,938.4569,644.5757,942.6246,640.408,938.7997,644.79,947.62" style="stroke: #000000; stroke-width: 1.0;"/><!--MD5=[70373826972f59a68a9e1237e085504c]
link <b>js</b> to @material-ui--><path d="M30.1097,425.85 C31.2004,539 41.071,1412.07 88,1668.73 C116.338,1823.719 70.4732,1913.211 198,2005.733 C328.375,2100.322 465.912,2105.184 559,1973.733 C592.079,1927.022 537.318,1505.01 571,1458.73 C576.904,1450.62 585.527,1445.02 594.83,1441.16 " fill="none" id="&lt;b&gt;js&lt;/b&gt;-&gt;@material-ui" style="stroke: #000000; stroke-width: 1.0;"/><polygon fill="#000000" points="599.746,1439.3,589.9123,1438.7536,595.0713,1441.0741,592.7509,1446.2331,599.746,1439.3" style="stroke: #000000; stroke-width: 1.0;"/><!--MD5=[6916429a7e3d9562fdebf683ba3634bd]
link <b>js</b> to _global_state--><path d="M43.0521,413.73 C75.5101,413.73 161.236,413.73 216.574,413.73 " fill="none" id="&lt;b&gt;js&lt;/b&gt;-&gt;_global_state" style="stroke: #000000; stroke-width: 1.0;"/><polygon fill="#000000" points="221.832,413.73,212.832,409.73,216.832,413.73,212.832,417.73,221.832,413.73" style="stroke: #000000; stroke-width: 1.0;"/><!--MD5=[5ccd79d76aed86d39ba560030864f563]
link <b>js</b> to immer--><path d="M35.4558,402.95 C57.7449,360.56 146.436,207.73 266.5,207.73 C266.5,207.73 266.5,207.73 430,207.73 C565.001,207.73 528.441,351.24 559,482.73 C567.352,518.67 549.367,1116.85 571,1146.73 C580.67,1160.09 597.722,1166.64 613.073,1169.82 " fill="none" id="&lt;b&gt;js&lt;/b&gt;-&gt;immer" style="stroke: #000000; stroke-width: 1.0;"/><polygon fill="#000000" points="618.201,1170.78,610.086,1165.199,613.2856,1169.8641,608.6206,1173.0637,618.201,1170.78" style="stroke: #000000; stroke-width: 1.0;"/><!--MD5=[ea05ac6ff744728d85873677660ad55b]
link <b>js</b> to main--><path d="M29,425.86 C29,814.39 29,1202.92 29,1591.45 " fill="none" id="&lt;b&gt;js&lt;/b&gt;-&gt;main" style="stroke: #000000; stroke-width: 1.0;"/><polygon fill="#000000" points="29,1596.59,33,1587.59,29,1591.59,25,1587.59,29,1596.59" style="stroke: #000000; stroke-width: 1.0;"/><!--MD5=[c27c71b44dca3bd97ebab78a74c038fc]
link <b>js</b> to react--><path d="M30.4072,425.82 C32.9641,498.01 48.0082,872.88 88,979.73 C117.738,1059.19 129.039,1086.32 198,1135.73 C250.356,1173.25 279.372,1147.97 337,1176.73 C410.328,1213.34 419.96,1236.87 485,1286.73 C523.669,1316.38 528.294,1331.27 571,1354.73 C585.329,1362.61 602.489,1368.79 616.726,1373.15 " fill="none" id="&lt;b&gt;js&lt;/b&gt;-&gt;react" style="stroke: #000000; stroke-width: 1.0;"/><polygon fill="#000000" points="621.829,1374.67,614.3457,1368.2669,617.0371,1373.2424,612.0616,1375.9339,621.829,1374.67" style="stroke: #000000; stroke-width: 1.0;"/><!--MD5=[15ef20da8a1c3d462656fd6be8056391]
link <b>js</b> to react-dom--><path d="M30.5068,401.67 C32.5047,366.62 42.1805,262.88 88,193.73 C143.391,110.14 166.223,55.73 266.5,55.73 C266.5,55.73 266.5,55.73 522,55.73 C567.417,55.73 554.502,211.54 559,256.73 C561.019,277.02 559.058,974.2 571,990.73 C578.231,1000.74 589.604,1006.92 601.306,1010.74 " fill="none" id="&lt;b&gt;js&lt;/b&gt;-&gt;react-dom" style="stroke: #000000; stroke-width: 1.0;"/><polygon fill="#000000" points="606.331,1012.23,598.8459,1005.829,601.5387,1010.8038,596.5639,1013.4966,606.331,1012.23" style="stroke: #000000; stroke-width: 1.0;"/><!--MD5=[66164be6c6fa1549c65045ed66e9e296]
link _kebab_menu to @material-ui--><path d="M314.001,1792.438 C322.93,1796.775 331.288,1802.688 337,1810.733 C397.384,1895.785 296.467,2207.862 373,2278.733 C409.523,2312.555 436.492,2289.906 485,2278.733 C521.228,2270.389 540.047,2271.716 559,2239.733 C581.123,2202.402 545.604,1493.92 571,1458.73 C576.871,1450.6 585.481,1444.99 594.78,1441.13 " fill="none" id="_kebab_menu-&gt;@material-ui" style="stroke: #000000; stroke-width: 0.5;"/><polygon fill="#000000" points="599.696,1439.26,589.8623,1438.7136,595.0213,1441.0341,592.7009,1446.1931,599.696,1439.26" style="stroke: #000000; stroke-width: 0.5;"/><!--MD5=[6e5f2367bbd9b18802c1dd1c79efbab3]
link _kebab_menu to react--><path d="M314.301,1783.604 C360.393,1784.425 432.047,1779.899 485,1749.733 C540.103,1718.343 543.086,1689.121 559,1627.73 C565.171,1603.93 556.223,1426.39 571,1406.73 C581.576,1392.67 600.301,1386.17 616.331,1383.19 " fill="none" id="_kebab_menu-&gt;react" style="stroke: #000000; stroke-width: 0.5;"/><polygon fill="#000000" points="621.649,1382.31,612.1159,1379.8359,616.7163,1383.1278,613.4245,1387.7282,621.649,1382.31" style="stroke: #000000; stroke-width: 0.5;"/><!--MD5=[75019fa5045c26a2208d92f6a82f4d81]
link _kebab_menu to utils--><path d="M285.645,1763.416 C302.191,1745.446 326.265,1715.684 337,1684.73 C391.678,1527.09 343.61,1098.98 373,934.73 C383.55,875.77 408.515,809 420.849,778.11 " fill="none" id="_kebab_menu-&gt;utils" style="stroke: #000000; stroke-width: 0.5;"/><polygon fill="#000000" points="422.858,773.12,415.7812,779.9697,420.9873,777.7568,423.2002,782.9629,422.858,773.12" style="stroke: #000000; stroke-width: 0.5;"/><!--MD5=[d635e3c34107499d4cb40f419553ad4d]
link _libraries to @devexpress--><path d="M154.237,1625.53 C167.459,1617.56 183.464,1608.04 198,1599.73 C363.363,1505.19 422.482,1501.57 559,1368.73 C564.873,1363.02 564.232,1359.35 571,1354.73 C577.746,1350.13 585.391,1346.26 593.15,1343.03 " fill="none" id="_libraries-&gt;@devexpress" style="stroke: #000000; stroke-width: 0.5;"/><polygon fill="#000000" points="597.989,1341.1,588.1476,1340.7155,593.3442,1342.9508,591.1089,1348.1473,597.989,1341.1" style="stroke: #000000; stroke-width: 0.5;"/><!--MD5=[fbf54cab6d92ad1d649dedfa4c590399]
link _libraries to @material-ui--><path d="M126.448,1659.98 C129.312,1763.891 146.607,2303.698 198,2353.733 C289.488,2442.805 367.033,2415.597 485,2366.733 C538.082,2344.746 544.586,2316.351 559,2260.733 C564.59,2239.166 557.964,1476.8 571,1458.73 C576.87,1450.6 585.478,1444.99 594.778,1441.13 " fill="none" id="_libraries-&gt;@material-ui" style="stroke: #000000; stroke-width: 0.5;"/><polygon fill="#000000" points="599.693,1439.26,589.8592,1438.7162,595.0188,1441.0353,592.6997,1446.195,599.693,1439.26" style="stroke: #000000; stroke-width: 0.5;"/><!--MD5=[8b0aa139e6adfe1a9d2b610b643e3716]
link _libraries to action_dialog--><path d="M157.748,1636.11 C211.071,1624.99 318.864,1602.5 380.991,1589.54 " fill="none" id="_libraries-&gt;action_dialog" style="stroke: #000000; stroke-width: 0.5;"/><polygon fill="#000000" points="386.12,1588.47,376.4919,1586.3964,381.2258,1589.4932,378.129,1594.2271,386.12,1588.47" style="stroke: #000000; stroke-width: 0.5;"/><!--MD5=[b019e27be52a4a9726614412518361d9]
link _libraries to action_panel--><path d="M128.36,1659.89 C135.951,1712.571 161.399,1870.493 198,1904.733 C244.326,1948.072 319.347,1956.084 371.042,1955.707 " fill="none" id="_libraries-&gt;action_panel" style="stroke: #000000; stroke-width: 0.5;"/><polygon fill="#000000" points="376.284,1955.639,367.2322,1951.7576,371.2844,1955.7047,367.3373,1959.7569,376.284,1955.639" style="stroke: #000000; stroke-width: 0.5;"/><!--MD5=[8162a64b121d562713ec29befc5db424]
link _libraries to _content_search--><path d="M129.222,1659.93 C136.181,1692.643 155.545,1764.316 198,1806.733 C201.867,1810.597 206.316,1814.002 211.05,1816.994 " fill="none" id="_libraries-&gt;_content_search" style="stroke: #000000; stroke-width: 0.5;"/><polygon fill="#000000" points="215.469,1819.626,209.7835,1811.5839,211.1732,1817.0674,205.6897,1818.4571,215.469,1819.626" style="stroke: #000000; stroke-width: 0.5;"/><!--MD5=[925e9beb681c337b4c595263735b51fd]
link _libraries to date-fns--><path d="M145.946,1625.43 C152.277,1618.73 158.53,1610.55 162,1601.73 C211.44,1476.17 114.865,494.03 198,387.73 C286.726,274.28 457.904,252.76 522,381.73 C556.799,451.76 549.87,476.08 559,553.73 C562.51,583.59 553.323,1070.42 571,1094.73 C579.466,1106.38 593.536,1112.84 607.183,1116.42 " fill="none" id="_libraries-&gt;date-fns" style="stroke: #000000; stroke-width: 0.5;"/><polygon fill="#000000" points="612.18,1117.61,604.3553,1111.6288,607.3168,1116.4485,602.497,1119.41,612.18,1117.61" style="stroke: #000000; stroke-width: 0.5;"/><!--MD5=[2cccce2021eaeade449a222fef140406]
link _libraries to _kebab_menu--><path d="M133.882,1660.1 C145.159,1683.26 167.904,1724.294 198,1749.733 C203.508,1754.389 209.829,1758.479 216.356,1762.031 " fill="none" id="_libraries-&gt;_kebab_menu" style="stroke: #000000; stroke-width: 0.5;"/><polygon fill="#000000" points="220.9,1764.404,214.7741,1756.6921,216.468,1762.0894,211.0707,1763.7833,220.9,1764.404" style="stroke: #000000; stroke-width: 0.5;"/><!--MD5=[1390f572d84b31762d32ff15816d655d]
link _libraries to lodash/lodash--><path d="M141.906,1625.58 C148.353,1618.39 155.739,1609.82 162,1601.73 C179.428,1579.21 177.728,1568.73 198,1548.73 C339.374,1409.27 393.005,1390.79 571,1302.73 C576.969,1299.78 583.357,1297.01 589.79,1294.46 " fill="none" id="_libraries-&gt;lodash/lodash" style="stroke: #000000; stroke-width: 0.5;"/><polygon fill="#000000" points="594.711,1292.56,584.8743,1292.0713,590.0468,1294.3615,587.7567,1299.534,594.711,1292.56" style="stroke: #000000; stroke-width: 0.5;"/><!--MD5=[735f4742ac387874d75a3a0f4bc72baa]
link _libraries to pretty-bytes--><path d="M126.609,1659.75 C130.856,1775.498 157.063,2444.83 198,2524.733 C270.186,2665.6303 367.038,2705.1293 522,2672.7333 C539.369,2669.1022 548.551,2672.0752 559,2657.7333 C629.333,2561.193 643.359,1661.27 645.251,1507.14 " fill="none" id="_libraries-&gt;pretty-bytes" style="stroke: #000000; stroke-width: 0.5;"/><polygon fill="#000000" points="645.313,1501.98,641.1848,1510.9219,645.2416,1506.9795,649.184,1511.0362,645.313,1501.98" style="stroke: #000000; stroke-width: 0.5;"/><!--MD5=[a4da0134aca006f0c6af24d29b70914a]
link _libraries to react--><path d="M127.442,1659.96 C132.802,1719.658 153.595,1916.31 198,1957.733 C273.658,2028.311 324.533,1993.733 428,1993.733 C428,1993.733 428,1993.733 522,1993.733 C576.962,1993.733 549.988,1929.952 559,1875.733 C563.274,1850.022 555.638,1427.79 571,1406.73 C581.446,1392.42 600.361,1385.93 616.517,1383.02 " fill="none" id="_libraries-&gt;react" style="stroke: #000000; stroke-width: 0.5;"/><polygon fill="#000000" points="621.874,1382.16,612.3548,1379.6332,616.9369,1382.9505,613.6196,1387.5326,621.874,1382.16" style="stroke: #000000; stroke-width: 0.5;"/><!--MD5=[bdce62424ee2d904cac266700546268d]
link _libraries to utils--><path d="M145.846,1625.39 C152.168,1618.69 158.44,1610.51 162,1601.73 C192.062,1527.61 146.846,944.23 198,882.73 C238.606,833.92 281.391,880.38 337,849.73 C370.789,831.11 400.814,796.5 416.494,776.36 " fill="none" id="_libraries-&gt;utils" style="stroke: #000000; stroke-width: 0.5;"/><polygon fill="#000000" points="419.619,772.3,410.966,777.0038,416.5746,776.2663,417.3121,781.8749,419.619,772.3" style="stroke: #000000; stroke-width: 0.5;"/><!--MD5=[6d27781659489f4fad8401ebdae4e9fd]
link _libraries to _validators--><path d="M145.773,1625.36 C152.088,1618.65 158.374,1610.48 162,1601.73 C209.136,1487.96 118.538,1142.82 198,1048.73 C238.97,1000.23 278.781,1041.07 337,1015.73 C354.632,1008.06 356.613,1001.79 373,991.73 C379.147,987.96 385.769,984.08 392.215,980.39 " fill="none" id="_libraries-&gt;_validators" style="stroke: #000000; stroke-width: 0.5;"/><polygon fill="#000000" points="396.641,977.87,386.8389,978.8286,392.2913,980.3358,390.7842,985.7882,396.641,977.87" style="stroke: #000000; stroke-width: 0.5;"/><!--MD5=[ac1f59bc2dc130d3be31e9f84fa7d2f9]
link _libraries to _view_content_modal--><path d="M157.531,1646.32 C168.008,1647.52 180.157,1648.9 192.461,1650.3 " fill="none" id="_libraries-&gt;_view_content_modal" style="stroke: #000000; stroke-width: 0.5;"/><polygon fill="#000000" points="197.739,1650.9,189.249,1645.9081,192.7711,1650.3347,188.3445,1653.8568,197.739,1650.9" style="stroke: #000000; stroke-width: 0.5;"/><!--MD5=[e6ab8b48d1e5d19261e9965775620b41]
link _library_assets to @material-ui--><path d="M269.363,1219.81 C274.864,1307.58 313.199,1708.073 558,1821.733 C576.303,1830.231 559.046,1474.99 571,1458.73 C576.943,1450.65 585.583,1445.06 594.89,1441.21 " fill="none" id="_library_assets-&gt;@material-ui" style="stroke: #000000; stroke-width: 0.5;"/><polygon fill="#000000" points="599.807,1439.35,589.9735,1438.801,595.1318,1441.1228,592.81,1446.2812,599.807,1439.35" style="stroke: #000000; stroke-width: 0.5;"/><!--MD5=[89218a5d1ad7a72a504c04f8be5dbf5b]
link _library_assets to action_dialog--><path d="M317.651,1217.75 C325.033,1221.9 331.876,1227.13 337,1233.73 C393.466,1306.45 348.256,1349.05 373,1437.73 C385.776,1483.52 407.738,1535.04 419.679,1561.65 " fill="none" id="_library_assets-&gt;action_dialog" style="stroke: #000000; stroke-width: 0.5;"/><polygon fill="#000000" points="421.788,1566.33,421.7309,1556.4813,419.7308,1561.7728,414.4393,1559.7728,421.788,1566.33" style="stroke: #000000; stroke-width: 0.5;"/><!--MD5=[55367ef617e796017f77007eff17794c]
link _library_assets to lodash/lodash--><path d="M304.664,1185.71 C364.985,1160.13 486.636,1120.87 559,1181.73 C582.821,1201.77 550.862,1227 571,1250.73 C576.211,1256.88 582.958,1261.57 590.261,1265.15 " fill="none" id="_library_assets-&gt;lodash/lodash" style="stroke: #000000; stroke-width: 0.5;"/><polygon fill="#000000" points="594.872,1267.24,588.3263,1259.8811,590.318,1265.1757,585.0234,1267.1675,594.872,1267.24" style="stroke: #000000; stroke-width: 0.5;"/><!--MD5=[f5cd3efc1c99feeb0544238359ac22b8]
link _library_assets to react--><path d="M293.637,1219.84 C342.439,1252.27 454.348,1322.95 558,1361.73 C577,1368.84 599.367,1373.64 616.73,1376.64 " fill="none" id="_library_assets-&gt;react" style="stroke: #000000; stroke-width: 0.5;"/><polygon fill="#000000" points="621.949,1377.51,613.7321,1372.0802,617.0175,1376.6852,612.4125,1379.9706,621.949,1377.51" style="stroke: #000000; stroke-width: 0.5;"/><!--MD5=[0629d74ec87141bacee35df28746f469]
link _library_assets to utils--><path d="M283.087,1185.51 C298.743,1166.13 323.214,1133.12 337,1100.73 C366.57,1031.27 353.603,1007.69 373,934.73 C388.39,876.85 411.046,809.56 421.842,778.33 " fill="none" id="_library_assets-&gt;utils" style="stroke: #000000; stroke-width: 0.5;"/><polygon fill="#000000" points="423.593,773.28,416.8582,780.4662,421.9503,778.0024,424.4141,783.0946,423.593,773.28" style="stroke: #000000; stroke-width: 0.5;"/><!--MD5=[b70f899626e0c54f356c2824edbc09a6]
link _library_assets to _validators--><path d="M280.215,1185.46 C293.918,1165.22 317.245,1130.63 337,1100.73 C364.608,1058.95 396.396,1009.8 414.149,982.26 " fill="none" id="_library_assets-&gt;_validators" style="stroke: #000000; stroke-width: 0.5;"/><polygon fill="#000000" points="416.876,978.03,408.6461,983.4401,414.1735,982.2367,415.3769,987.7641,416.876,978.03" style="stroke: #000000; stroke-width: 0.5;"/><!--MD5=[1a55bf7fafdcb147df5f6e3271646e6a]
link _library_images to @devexpress--><path d="M279.086,2097.248 C322.625,2024.365 488.885,1736.396 559,1475.73 C566.019,1449.64 554.285,1375.96 571,1354.73 C576.72,1347.47 584.603,1342.23 593.111,1338.45 " fill="none" id="_library_images-&gt;@devexpress" style="stroke: #000000; stroke-width: 0.5;"/><polygon fill="#000000" points="597.892,1336.49,588.0477,1336.1917,593.2635,1338.3814,591.0739,1343.5973,597.892,1336.49" style="stroke: #000000; stroke-width: 0.5;"/><!--MD5=[55aa17e2e66f467f76924b9e6d7cc701]
link _library_images to @material-ui--><path d="M271.079,2131.863 C278.349,2173.32 303.229,2278.798 373,2321.733 C448.495,2368.191 526.053,2332.027 559,2249.733 C575.335,2208.932 545.282,1494.37 571,1458.73 C576.871,1450.6 585.479,1444.99 594.779,1441.13 " fill="none" id="_library_images-&gt;@material-ui" style="stroke: #000000; stroke-width: 0.5;"/><polygon fill="#000000" points="599.694,1439.26,589.8603,1438.7136,595.0193,1441.0341,592.6989,1446.1931,599.694,1439.26" style="stroke: #000000; stroke-width: 0.5;"/><!--MD5=[5815229a5ec740a2820778812fa53f6b]
link _library_images to action_panel--><path d="M285.268,2097.598 C316.011,2066.18 381.038,1999.726 411.546,1968.548 " fill="none" id="_library_images-&gt;action_panel" style="stroke: #000000; stroke-width: 0.5;"/><polygon fill="#000000" points="415.091,1964.926,405.9377,1968.5616,411.5942,1968.4999,411.656,1974.1564,415.091,1964.926" style="stroke: #000000; stroke-width: 0.5;"/><!--MD5=[188c62e7861f4904c3dcbb393c48bfbe]
link _library_images to react--><path d="M319.083,2122.697 C392.245,2130.956 522.809,2132.438 559,2045.733 C572.677,2012.967 550.171,1435.49 571,1406.73 C581.487,1392.26 600.642,1385.78 616.903,1382.91 " fill="none" id="_library_images-&gt;react" style="stroke: #000000; stroke-width: 0.5;"/><polygon fill="#000000" points="621.843,1382.14,612.3284,1379.596,616.9045,1382.9216,613.5789,1387.4977,621.843,1382.14" style="stroke: #000000; stroke-width: 0.5;"/><!--MD5=[b44896ce3a4435f4d4b68753f929e3db]
link _library_modules to @devexpress--><path d="M323.078,1060.6 C376.111,1049.72 457.81,1040.64 522,1067.73 C543.717,1076.9 549.465,1084.18 559,1105.73 C576.742,1145.84 544.53,1267.76 571,1302.73 C576.581,1310.11 584.398,1315.4 592.884,1319.2 " fill="none" id="_library_modules-&gt;@devexpress" style="stroke: #000000; stroke-width: 0.5;"/><polygon fill="#000000" points="597.658,1321.15,590.857,1314.0263,593.0341,1319.2475,587.813,1321.4246,597.658,1321.15" style="stroke: #000000; stroke-width: 0.5;"/><!--MD5=[29e36902da6788f2ea5e90dd36429ac4]
link _library_modules to @material-ui--><path d="M283.417,1091.82 C299.362,1111.08 324.085,1143.99 337,1176.73 C373.839,1270.12 334.984,1306.81 373,1399.73 C405.594,1479.4 446.235,1480.88 485,1557.73 C531.776,1650.47 473.864,1718.832 558,1779.733 C586.916,1800.664 549.792,1487.45 571,1458.73 C576.961,1450.66 585.608,1445.08 594.917,1441.23 " fill="none" id="_library_modules-&gt;@material-ui" style="stroke: #000000; stroke-width: 0.5;"/><polygon fill="#000000" points="599.834,1439.37,590.0005,1438.821,595.1588,1441.1428,592.837,1446.3012,599.834,1439.37" style="stroke: #000000; stroke-width: 0.5;"/><!--MD5=[30e228ea860f692afb8ec03724dccf3f]
link _library_modules to action_dialog--><path d="M283.56,1091.77 C299.63,1110.98 324.462,1143.85 337,1176.73 C378.714,1286.15 343.655,1324.37 373,1437.73 C384.85,1483.51 406.991,1534.64 419.257,1561.3 " fill="none" id="_library_modules-&gt;action_dialog" style="stroke: #000000; stroke-width: 0.5;"/><polygon fill="#000000" points="421.428,1565.98,421.2777,1556.1323,419.3278,1561.4425,414.0176,1559.4926,421.428,1565.98" style="stroke: #000000; stroke-width: 0.5;"/><!--MD5=[31313b6e6a564e154e3263c616b02c42]
link _library_modules to action_panel--><path d="M284.189,1092 C300.553,1111.15 325.405,1143.73 337,1176.73 C399.98,1356 350.196,1414.1 373,1602.73 C388.338,1729.604 415.139,1881.127 424.586,1933.144 " fill="none" id="_library_modules-&gt;action_panel" style="stroke: #000000; stroke-width: 0.5;"/><polygon fill="#000000" points="425.497,1938.146,427.8198,1928.575,424.6012,1933.2269,419.9493,1930.0083,425.497,1938.146" style="stroke: #000000; stroke-width: 0.5;"/><!--MD5=[cc57c9cdd70c97fc9a4d8e50646e3d7d]
link _library_modules to lodash/lodash--><path d="M323.213,1058.58 C327.937,1056.76 332.592,1054.81 337,1052.73 C354.181,1044.65 355.586,1037.3 373,1029.73 C404.34,1016.11 495.468,970.2 522,991.73 C584.063,1042.11 545.052,1089.03 559,1167.73 C562.252,1186.08 559.147,1236.35 571,1250.73 C576.123,1256.95 582.822,1261.68 590.104,1265.28 " fill="none" id="_library_modules-&gt;lodash/lodash" style="stroke: #000000; stroke-width: 0.5;"/><polygon fill="#000000" points="594.704,1267.38,588.1736,1260.0075,590.1543,1265.3063,584.8556,1267.287,594.704,1267.38" style="stroke: #000000; stroke-width: 0.5;"/><!--MD5=[180b0a52e80549f56a2a4358b01d0844]
link _library_modules to react--><path d="M323.087,1068.2 C392.624,1063.39 509.685,1067.9 559,1143.73 C584.604,1183.1 542.731,1317.23 571,1354.73 C581.594,1368.79 600.319,1375.28 616.344,1378.27 " fill="none" id="_library_modules-&gt;react" style="stroke: #000000; stroke-width: 0.5;"/><polygon fill="#000000" points="621.66,1379.15,613.4385,1373.7272,616.7278,1378.3294,612.1256,1381.6187,621.66,1379.15" style="stroke: #000000; stroke-width: 0.5;"/><!--MD5=[1a0ad93d3d2dab0ee4b03c79723e6690]
link _library_modules to urls--><path d="M278.746,1057.7 C293.775,1031.97 321.671,981.25 337,934.73 C364.721,850.62 350.031,824.27 373,738.73 C386.585,688.14 409.159,630.48 420.707,602.22 " fill="none" id="_library_modules-&gt;urls" style="stroke: #000000; stroke-width: 0.5;"/><polygon fill="#000000" points="422.731,597.29,415.6115,604.0953,420.8313,601.915,423.0115,607.1349,422.731,597.29" style="stroke: #000000; stroke-width: 0.5;"/><!--MD5=[3c7e6ae74edf40d438b06d84e6cf123f]
link _library_modules to utils--><path d="M277.303,1057.4 C305.259,1002.37 391.813,831.97 419.435,777.6 " fill="none" id="_library_modules-&gt;utils" style="stroke: #000000; stroke-width: 0.5;"/><polygon fill="#000000" points="421.772,773,414.1216,779.2026,419.5017,777.4549,421.2494,782.835,421.772,773" style="stroke: #000000; stroke-width: 0.5;"/><!--MD5=[e85f2dd08a18dede9f8750c4cd070acf]
link _library_modules to _validators--><path d="M315.47,1057.61 C323.095,1053.7 330.584,1049.08 337,1043.73 C358.587,1025.73 352.228,1010.67 373,991.73 C377.43,987.69 382.477,983.97 387.675,980.6 " fill="none" id="_library_modules-&gt;_validators" style="stroke: #000000; stroke-width: 0.5;"/><polygon fill="#000000" points="392.067,977.86,382.3139,979.2303,387.8249,980.5067,386.5486,986.0176,392.067,977.86" style="stroke: #000000; stroke-width: 0.5;"/><!--MD5=[7ae2cefebc542143ff12a84a41c8c8d1]
link main to @material-ui--><path d="M29.888,1622.96 C29.4422,1700.219 30.0889,2093.124 88,2195.733 C186.417,2370.114 310.518,2506.97 485,2408.733 C546.67,2374.012 543.278,2336.738 559,2267.733 C563.993,2245.82 557.851,1476.96 571,1458.73 C576.869,1450.6 585.477,1444.99 594.777,1441.13 " fill="none" id="main-&gt;@material-ui" style="stroke: #000000; stroke-width: 0.5;"/><polygon fill="#000000" points="599.692,1439.26,589.8583,1438.7136,595.0173,1441.0341,592.6969,1446.1931,599.692,1439.26" style="stroke: #000000; stroke-width: 0.5;"/><!--MD5=[043b2be3ee28000b126c6fa49afc6180]
link main to _content--><path d="M31.8777,1596.63 C43.532,1515.3 105.9699,1079.56 120.826,975.88 " fill="none" id="main-&gt;_content" style="stroke: #000000; stroke-width: 0.5;"/><polygon fill="#000000" points="121.537,970.92,116.2923,979.2562,120.8227,975.8687,124.2102,980.3991,121.537,970.92" style="stroke: #000000; stroke-width: 0.5;"/><!--MD5=[d52cb2dcf7fef9554dd0b0c9409bcdc1]
link main to _home_screen--><path d="M30.0465,1623.15 C30.5116,1694.986 35.4966,2034.045 88,2121.733 C147.144,2220.512 294.045,2245.051 374.026,2250.984 " fill="none" id="main-&gt;_home_screen" style="stroke: #000000; stroke-width: 0.5;"/><polygon fill="#000000" points="379.196,2251.349,370.5007,2246.724,374.2085,2250.9962,369.9362,2254.704,379.196,2251.349" style="stroke: #000000; stroke-width: 0.5;"/><!--MD5=[e76c42ef80b65749f0ff5212d55096e0]
link main to _libraries--><path d="M49.0223,1616.41 C60.107,1620.3 74.4562,1625.34 87.6296,1629.96 " fill="none" id="main-&gt;_libraries" style="stroke: #000000; stroke-width: 0.5;"/><polygon fill="#000000" points="92.4215,1631.65,85.2562,1624.8929,87.7042,1629.9926,82.6044,1632.4406,92.4215,1631.65" style="stroke: #000000; stroke-width: 0.5;"/><!--MD5=[851628678d41c303b09315c979e1430d]
link main to _library_assets--><path d="M34.6253,1596.96 C51.77,1550.57 115.011,1387.61 198,1271.73 C210.757,1253.92 228.187,1236.43 242.272,1223.52 " fill="none" id="main-&gt;_library_assets" style="stroke: #000000; stroke-width: 0.5;"/><polygon fill="#000000" points="246.15,1220,236.7975,1223.0873,242.4478,1223.3606,242.1745,1229.0108,246.15,1220" style="stroke: #000000; stroke-width: 0.5;"/><!--MD5=[df451ac51826cbe14a972175ffa6a534]
link main to _library_images--><path d="M30.6821,1622.81 C34.5998,1695.651 55.2197,2049.265 88,2083.733 C118.909,2116.234 170.768,2122.146 210.647,2121.006 " fill="none" id="main-&gt;_library_images" style="stroke: #000000; stroke-width: 0.5;"/><polygon fill="#000000" points="215.943,2120.812,206.8027,2117.1439,210.9463,2120.9949,207.0953,2125.1385,215.943,2120.812" style="stroke: #000000; stroke-width: 0.5;"/><!--MD5=[dfc69c2fc024fde114239a64c8e11b28]
link main to _library_modules--><path d="M32.2479,1596.72 C38.5376,1561.65 57.8531,1462.6 88,1384.73 C125.755,1287.21 144.33,1266.49 198,1176.73 C215.068,1148.19 236.754,1116.58 251.102,1096.23 " fill="none" id="main-&gt;_library_modules" style="stroke: #000000; stroke-width: 0.5;"/><polygon fill="#000000" points="254.048,1092.06,245.5861,1097.0995,251.1614,1096.1426,252.1183,1101.718,254.048,1092.06" style="stroke: #000000; stroke-width: 0.5;"/><!--MD5=[0e14825b7d1b68eaa518a47be0ba285b]
link main to _metadata--><path d="M49.0223,1602.85 C58.786,1599.32 71.0823,1594.87 82.8771,1590.61 " fill="none" id="main-&gt;_metadata" style="stroke: #000000; stroke-width: 0.5;"/><polygon fill="#000000" points="87.8924,1588.79,78.0684,1588.0913,83.1908,1590.4914,80.7907,1595.6139,87.8924,1588.79" style="stroke: #000000; stroke-width: 0.5;"/><!--MD5=[565eaec0df8463da7ae15a3b26ee7a49]
link main to react--><path d="M29.7066,1622.89 C28.5212,1689.025 26.758,1984.405 88,2045.733 C144.562,2102.375 186.453,2069.733 266.5,2069.733 C266.5,2069.733 266.5,2069.733 430,2069.733 C529.874,2069.733 543.113,1984.335 559,1885.733 C563.235,1859.453 555.317,1428.24 571,1406.73 C581.442,1392.41 600.357,1385.93 616.514,1383.01 " fill="none" id="main-&gt;react" style="stroke: #000000; stroke-width: 0.5;"/><polygon fill="#000000" points="621.872,1382.16,612.3524,1379.6348,616.935,1382.9513,613.6185,1387.534,621.872,1382.16" style="stroke: #000000; stroke-width: 0.5;"/><!--MD5=[d16ce00fd9c0977e07e834e5e3fa4818]
link main to _system_info--><path d="M30.2394,1622.98 C32.4253,1740.529 49.722,2601.5809 88,2638.7333 C164.965,2713.4348 303.88,2686.6608 378.087,2664.8043 " fill="none" id="main-&gt;_system_info" style="stroke: #000000; stroke-width: 0.5;"/><polygon fill="#000000" points="383.317,2663.2406,373.5482,2661.9875,378.5267,2664.6735,375.8408,2669.652,383.317,2663.2406" style="stroke: #000000; stroke-width: 0.5;"/><!--MD5=[08889e9a5ec428bb0857a7be32f9fdbd]
link main to utils--><path d="M30.3118,1596.6 C32.4072,1513.43 45.6641,1059.07 88,927.73 C117.231,837.05 115.127,790.74 198,743.73 C266.242,705.02 364.767,735.53 407.235,751.98 " fill="none" id="main-&gt;utils" style="stroke: #000000; stroke-width: 0.5;"/><polygon fill="#000000" points="411.89,753.81,404.9782,746.7938,407.2369,751.9801,402.0505,754.2388,411.89,753.81" style="stroke: #000000; stroke-width: 0.5;"/><!--MD5=[c922a599064814c382b655f30a1712a1]
link _metadata to @devexpress--><path d="M147.686,1558.52 C161.631,1547.85 180.376,1534.22 198,1523.73 C350.555,1432.96 391.073,1411.13 558,1350.73 C569.084,1346.72 581.212,1343.17 592.813,1340.15 " fill="none" id="_metadata-&gt;@devexpress" style="stroke: #000000; stroke-width: 0.5;"/><polygon fill="#000000" points="597.748,1338.89,588.038,1337.242,592.9036,1340.1275,590.0181,1344.9931,597.748,1338.89" style="stroke: #000000; stroke-width: 0.5;"/><!--MD5=[f337148479a0091678b30898dbf333ef]
link _metadata to @material-ui--><path d="M145.788,1593.1 C152.105,1599.8 158.388,1607.98 162,1616.73 C211.326,1736.318 139.953,2082.129 198,2197.733 C262.4,2325.99 351.278,2397.843 485,2345.733 C533.571,2326.806 543.823,2304.604 559,2254.733 C571.876,2212.422 545.121,1494.6 571,1458.73 C576.87,1450.6 585.479,1444.99 594.778,1441.13 " fill="none" id="_metadata-&gt;@material-ui" style="stroke: #000000; stroke-width: 0.5;"/><polygon fill="#000000" points="599.694,1439.26,589.8603,1438.7136,595.0193,1441.0341,592.6989,1446.1931,599.694,1439.26" style="stroke: #000000; stroke-width: 0.5;"/><!--MD5=[5603755b90bcf3fbce93bc3978728efb]
link _metadata to action_dialog--><path d="M162.128,1576.21 C212.991,1576.89 306.347,1578.12 367.796,1578.94 " fill="none" id="_metadata-&gt;action_dialog" style="stroke: #000000; stroke-width: 0.5;"/><polygon fill="#000000" points="372.901,1579,363.9543,1574.8821,367.9014,1578.9343,363.8492,1582.8814,372.901,1579" style="stroke: #000000; stroke-width: 0.5;"/><!--MD5=[86005865384182588e11df59b15412be]
link _metadata to action_panel--><path d="M145.008,1592.87 C151.408,1599.67 157.946,1607.96 162,1616.73 C208.358,1717.037 128.6,1776.748 198,1862.733 C239.427,1914.06 275.554,1890.754 337,1914.733 C356.46,1922.328 378.13,1931.125 395.441,1938.236 " fill="none" id="_metadata-&gt;action_panel" style="stroke: #000000; stroke-width: 0.5;"/><polygon fill="#000000" points="400.202,1940.194,393.4012,1933.0701,395.5782,1938.2913,390.357,1940.4683,400.202,1940.194" style="stroke: #000000; stroke-width: 0.5;"/><!--MD5=[c7f882579d38dc52ab2f1b46dd94a734]
link _metadata to _kebab_menu--><path d="M144.077,1592.75 C150.528,1599.66 157.342,1608.05 162,1616.73 C190.953,1670.7 158.312,1703.097 198,1749.733 C202.949,1755.549 209.213,1760.325 215.933,1764.234 " fill="none" id="_metadata-&gt;_kebab_menu" style="stroke: #000000; stroke-width: 0.5;"/><polygon fill="#000000" points="220.648,1766.803,214.66,1758.9835,216.2578,1764.41,210.8313,1766.0078,220.648,1766.803" style="stroke: #000000; stroke-width: 0.5;"/><!--MD5=[4de84ce83b2cb0c5959c8f0e1228835a]
link _metadata to lodash/lodash--><path d="M132.582,1558.45 C140.297,1537.8 153.152,1502.08 162,1470.73 C181.92,1400.17 145.229,1360.64 198,1309.73 C315.131,1196.74 395.941,1257.69 558,1242.73 C564.755,1242.11 564.927,1247.71 571,1250.73 C576.961,1253.7 583.345,1256.48 589.775,1259.03 " fill="none" id="_metadata-&gt;lodash/lodash" style="stroke: #000000; stroke-width: 0.5;"/><polygon fill="#000000" points="594.695,1260.94,587.7534,1253.9533,590.0341,1259.13,584.8574,1261.4107,594.695,1260.94" style="stroke: #000000; stroke-width: 0.5;"/><!--MD5=[b88e57ff030e4724b46de072bc72393f]
link _metadata to react--><path d="M142.724,1592.95 C149.148,1600.02 156.3,1608.47 162,1616.73 C181.414,1644.88 168.704,1667.09 198,1684.73 C307.998,1750.961 385.041,1732.317 485,1651.73 C547.886,1601.04 536.792,1563.4 559,1485.73 C568.764,1451.59 548.315,1434.06 571,1406.73 C582.164,1393.29 600.703,1386.78 616.494,1383.65 " fill="none" id="_metadata-&gt;react" style="stroke: #000000; stroke-width: 0.5;"/><polygon fill="#000000" points="621.729,1382.7,612.1629,1380.3571,616.808,1383.5855,613.5797,1388.2307,621.729,1382.7" style="stroke: #000000; stroke-width: 0.5;"/><!--MD5=[229e2b0539f51994b22f0a0369c4a908]
link _metadata to urls--><path d="M127.036,1558.66 C134.677,1433.25 182.446,658.93 198,640.73 C239.257,592.47 275.33,622.85 337,607.73 C361.015,601.85 388.531,594.86 406.961,590.14 " fill="none" id="_metadata-&gt;urls" style="stroke: #000000; stroke-width: 0.5;"/><polygon fill="#000000" points="411.908,588.88,402.1966,587.2401,407.0646,590.1216,404.1831,594.9895,411.908,588.88" style="stroke: #000000; stroke-width: 0.5;"/><!--MD5=[8c41024f00c182ddd7ea9c99df675c91]
link _metadata to utils--><path d="M126.633,1558.66 C130.628,1454.59 153.624,908.08 198,849.73 C224.176,815.32 352.227,779.8 405.098,766.35 " fill="none" id="_metadata-&gt;utils" style="stroke: #000000; stroke-width: 0.5;"/><polygon fill="#000000" points="409.974,765.12,400.2681,763.4478,405.1265,766.3455,402.2289,771.2038,409.974,765.12" style="stroke: #000000; stroke-width: 0.5;"/><!--MD5=[d3b44b6c71f4e830dd5f1af71a5ce07f]
link _metadata to _validators--><path d="M125.696,1558.71 C124.54,1473.97 123.726,1098.4 198,1015.73 C222.638,988.31 325.888,972.3 385.336,965.18 " fill="none" id="_metadata-&gt;_validators" style="stroke: #000000; stroke-width: 0.5;"/><polygon fill="#000000" points="390.596,964.56,381.1888,961.6437,385.6305,965.1467,382.1275,969.5884,390.596,964.56" style="stroke: #000000; stroke-width: 0.5;"/><!--MD5=[66601c48fcb550104a37ebcd0030b899]
link _system_info to @material-ui--><path d="M465.408,2630.6186 C497.228,2612.939 541.554,2581.985 559,2539.733 C570.461,2511.977 553.477,1483.12 571,1458.73 C576.854,1450.59 585.456,1444.97 594.754,1441.11 " fill="none" id="_system_info-&gt;@material-ui" style="stroke: #000000; stroke-width: 0.5;"/><polygon fill="#000000" points="599.669,1439.24,589.8352,1438.6962,594.9948,1441.0153,592.6757,1446.175,599.669,1439.24" style="stroke: #000000; stroke-width: 0.5;"/><!--MD5=[d47d49376d7044f0a3e105c98ae366c8]
link _system_info to pretty-bytes--><path d="M474.66,2664.3723 C502.418,2671.556 536.904,2674.2543 559,2653.7333 C646.316,2572.64 646.265,1661.37 645.624,1506.91 " fill="none" id="_system_info-&gt;pretty-bytes" style="stroke: #000000; stroke-width: 0.5;"/><polygon fill="#000000" points="645.601,1501.74,641.6525,1510.7627,645.6296,1506.7399,649.6524,1510.717,645.601,1501.74" style="stroke: #000000; stroke-width: 0.5;"/><!--MD5=[fb63b59278d86e01f10d49a3888d055b]
link _system_info to react--><path d="M435.798,2630.4668 C457.31,2565.425 532.668,2328.628 559,2126.733 C561.587,2106.899 559.283,1422.94 571,1406.73 C581.472,1392.24 600.627,1385.77 616.891,1382.91 " fill="none" id="_system_info-&gt;react" style="stroke: #000000; stroke-width: 0.5;"/><polygon fill="#000000" points="621.833,1382.13,612.3198,1379.5806,616.894,1382.9088,613.5659,1387.483,621.833,1382.13" style="stroke: #000000; stroke-width: 0.5;"/><!--MD5=[225c182682d814a0317095063d0eb248]
link urls to axios--><path d="M435.304,572.25 C452.942,532.31 511.216,412.92 559,459.73 C582.142,482.4 551.972,1016.51 571,1042.73 C581.193,1056.78 599.541,1063.29 615.477,1066.28 " fill="none" id="urls-&gt;axios" style="stroke: #000000; stroke-width: 0.5;"/><polygon fill="#000000" points="620.774,1067.17,612.5586,1061.7379,615.8427,1066.3438,611.2368,1069.6279,620.774,1067.17" style="stroke: #000000; stroke-width: 0.5;"/><!--MD5=[df8ee147ce082f6c5b37eef5f744471a]
link urls to date-fns--><path d="M445.741,579.82 C475.246,571.68 537.801,559.81 559,597.73 C585.954,645.95 538.475,1050.09 571,1094.73 C579.477,1106.37 593.549,1112.83 607.194,1116.41 " fill="none" id="urls-&gt;date-fns" style="stroke: #000000; stroke-width: 0.5;"/><polygon fill="#000000" points="612.191,1117.6,604.3624,1111.624,607.327,1116.4418,602.5092,1119.4064,612.191,1117.6" style="stroke: #000000; stroke-width: 0.5;"/><!--MD5=[07b99145d8b2de3af9fc7335069cae95]
link urls to lodash/lodash--><path d="M447.153,586.63 C477.809,591.11 540.523,605.54 559,649.73 C571.882,680.54 551.393,1223.7 571,1250.73 C575.862,1257.44 582.582,1262.42 590.012,1266.13 " fill="none" id="urls-&gt;lodash/lodash" style="stroke: #000000; stroke-width: 0.5;"/><polygon fill="#000000" points="594.72,1268.28,588.1877,1260.9092,590.1698,1266.2074,584.8716,1268.1896,594.72,1268.28" style="stroke: #000000; stroke-width: 0.5;"/><!--MD5=[d3f8519a3c67d5c68fa8c0af9648f3e4]
link utils to immer--><path d="M434.265,748.11 C449.879,703.64 505.791,559.7 559,611.73 C580.256,632.52 553.516,1122.69 571,1146.73 C580.699,1160.07 597.752,1166.62 613.097,1169.8 " fill="none" id="utils-&gt;immer" style="stroke: #000000; stroke-width: 0.5;"/><polygon fill="#000000" points="618.223,1170.76,610.1112,1165.1745,613.3081,1169.8413,608.6413,1173.0383,618.223,1170.76" style="stroke: #000000; stroke-width: 0.5;"/><!--MD5=[1f21794a92c9f3316c445a31fa73f64b]
link utils to lodash/lodash--><path d="M447.047,754.68 C474.778,746.05 529.516,734.29 559,763.73 C578.15,782.86 555.059,1228.86 571,1250.73 C575.878,1257.43 582.606,1262.41 590.04,1266.11 " fill="none" id="utils-&gt;lodash/lodash" style="stroke: #000000; stroke-width: 0.5;"/><polygon fill="#000000" points="594.749,1268.26,588.2147,1260.8909,590.1982,1266.1886,584.9005,1268.1721,594.749,1268.26" style="stroke: #000000; stroke-width: 0.5;"/><!--MD5=[64809f0d7a361b4e9843a5f5c6e31e20]
link utils to xlsx--><path d="M438.501,749.23 C460.657,720.53 521.079,650.69 559,687.73 C579.314,707.58 554.287,1175.78 571,1198.73 C582.252,1214.19 603.378,1220.52 620.267,1223.08 " fill="none" id="utils-&gt;xlsx" style="stroke: #000000; stroke-width: 0.5;"/><polygon fill="#000000" points="625.357,1223.76,616.9666,1218.6024,620.4011,1223.0973,615.9062,1226.5319,625.357,1223.76" style="stroke: #000000; stroke-width: 0.5;"/><!--MD5=[dbf7006b1b3788213bc040d40917fab2]
link _validators to lodash/lodash--><path d="M441.392,943.72 C465.237,910.06 521.311,841.24 559,877.73 C588.788,906.58 546.45,1217.32 571,1250.73 C575.903,1257.41 582.645,1262.38 590.084,1266.08 " fill="none" id="_validators-&gt;lodash/lodash" style="stroke: #000000; stroke-width: 0.5;"/><polygon fill="#000000" points="594.795,1268.23,588.2569,1260.8643,590.2432,1266.161,584.9465,1268.1472,594.795,1268.23" style="stroke: #000000; stroke-width: 0.5;"/><!--MD5=[0cfea643f14966e1b678c01d4a577e9d]
link _view_content_modal to @material-ui--><path d="M282.452,1675.99 C333.295,1737.958 508.317,1943.037 559,1893.733 C576.329,1876.876 556.732,1478.25 571,1458.73 C576.921,1450.63 585.551,1445.04 594.856,1441.18 " fill="none" id="_view_content_modal-&gt;@material-ui" style="stroke: #000000; stroke-width: 0.5;"/><polygon fill="#000000" points="599.773,1439.32,589.9395,1438.771,595.0978,1441.0928,592.776,1446.2512,599.773,1439.32" style="stroke: #000000; stroke-width: 0.5;"/><!--MD5=[1ef8531e3ee7c533812226585b944eec]
link _view_content_modal to action_dialog--><path d="M307.884,1641.58 C317.483,1637.21 327.671,1632.43 337,1627.73 C353.351,1619.51 356.842,1616.33 373,1607.73 C381.46,1603.23 390.722,1598.46 399.193,1594.15 " fill="none" id="_view_content_modal-&gt;action_dialog" style="stroke: #000000; stroke-width: 0.5;"/><polygon fill="#000000" points="403.807,1591.81,393.9711,1592.3151,399.3481,1594.0723,397.5908,1599.4493,403.807,1591.81" style="stroke: #000000; stroke-width: 0.5;"/><!--MD5=[7112f500854423e307711fa9eb475a71]
link _view_content_modal to lodash/lodash--><path d="M274.1,1641.55 C296.647,1575.65 387.847,1338.79 558,1257.73 C573.389,1250.4 591.649,1252.84 607.497,1258.02 " fill="none" id="_view_content_modal-&gt;lodash/lodash" style="stroke: #000000; stroke-width: 0.5;"/><polygon fill="#000000" points="612.332,1259.71,605.1569,1252.9633,607.6123,1258.0595,602.5161,1260.5149,612.332,1259.71" style="stroke: #000000; stroke-width: 0.5;"/><!--MD5=[e61edb6b5e5a672bfb0c58d7017d572a]
link _view_content_modal to pretty-bytes--><path d="M285.203,1675.76 C301.652,1693.732 325.877,1723.703 337,1754.733 C376.383,1864.607 311.647,2179.44 373,2278.733 C398.183,2319.489 523.546,2419.954 559,2387.733 C626.321,2326.553 642.583,1640.26 645.114,1507.05 " fill="none" id="_view_content_modal-&gt;pretty-bytes" style="stroke: #000000; stroke-width: 0.5;"/><polygon fill="#000000" points="645.211,1501.84,641.0318,1510.7582,645.111,1506.839,649.0302,1510.9182,645.211,1501.84" style="stroke: #000000; stroke-width: 0.5;"/><!--MD5=[aa861ed1a1e77d058cdead8fe73e3150]
link _view_content_modal to react--><path d="M337.184,1654.32 C382.883,1648.38 442.161,1634.59 485,1602.73 C535.892,1564.89 537.076,1540.24 559,1480.73 C570.519,1449.47 549.589,1432.26 571,1406.73 C582.231,1393.34 600.77,1386.84 616.545,1383.69 " fill="none" id="_view_content_modal-&gt;react" style="stroke: #000000; stroke-width: 0.5;"/><polygon fill="#000000" points="621.774,1382.74,612.2052,1380.4079,616.854,1383.631,613.6309,1388.2798,621.774,1382.74" style="stroke: #000000; stroke-width: 0.5;"/><!--MD5=[c8e44db1b6fcbba59f6acf4543a0b169]
link _view_content_modal to urls--><path d="M271.765,1641.6 C282.677,1583.74 318.245,1390.17 337,1228.73 C362.199,1011.83 327.868,952.38 373,738.73 C383.827,687.48 407.619,630.11 420.062,602.06 " fill="none" id="_view_content_modal-&gt;urls" style="stroke: #000000; stroke-width: 0.5;"/><polygon fill="#000000" points="422.248,597.17,414.9203,603.7506,420.2054,601.7337,422.2223,607.0188,422.248,597.17" style="stroke: #000000; stroke-width: 0.5;"/><script type="text/plantuml"><![CDATA[MD5=[17ba30f09a5e75e65f1e57f04cff6ae2]
@startuml

scale max 1920 width
left to right direction

skinparam nodesep 18
skinparam ranksep 36
skinparam monochrome true
skinparam shadowing false
skinparam defaultFontName Tahoma
skinparam defaultFontSize 12
skinparam roundCorner 6
skinparam dpi 150
skinparam arrowColor black
skinparam arrowThickness 0.5
skinparam packageTitleAlignment left

skinparam usecase {
  borderThickness 0.5
}

skinparam rectangle {
  borderThickness 0.5
}

skinparam component {
  borderThickness 1
}


(<b>js</b>)
(action_dialog)
(action_panel)
rectangle "bulk_content_modal" as _bulk_content_modal
rectangle "content" as _content
rectangle "content_modal" as _content_modal
rectangle "content_search" as _content_search
rectangle "global_state" as _global_state
rectangle "home_screen" as _home_screen
rectangle "kebab_menu" as _kebab_menu
rectangle "libraries" as _libraries
rectangle "library_assets" as _library_assets
rectangle "library_images" as _library_images
rectangle "library_modules" as _library_modules
(main)
rectangle "metadata" as _metadata
rectangle "system_info" as _system_info
(urls)
(utils)
rectangle "validators" as _validators
rectangle "view_content_modal" as _view_content_modal

package "Dependencies" {
  [@date-io]
  [@devexpress]
  [@material-ui]
  [axios]
  [date-fns]
  [immer]
  [lodash/lodash]
  [pretty-bytes]
  [react]
  [react-dom]
  [xlsx]
}

(action_dialog) ----> [@material-ui]
(action_dialog) ----> [react]
(action_panel) ----> [@material-ui]
(action_panel) ----> [react]
_bulk_content_modal ----> [@devexpress]
_bulk_content_modal ----> [@material-ui]
_bulk_content_modal --> (action_dialog)
_bulk_content_modal ----> [axios]
_bulk_content_modal ----> [lodash/lodash]
_bulk_content_modal ----> [react]
_bulk_content_modal --> (urls)
_bulk_content_modal --> (utils)
_content ----> [@material-ui]
_content --> (action_dialog)
_content ----> [axios]
_content --> _bulk_content_modal
_content --> _content_modal
_content --> _content_search
_content ----> [lodash/lodash]
_content ----> [react]
_content --> (urls)
_content --> (utils)
_content --> _validators
_content --> _view_content_modal
_content_modal ----> [@material-ui]
_content_modal --> (action_dialog)
_content_modal ----> [axios]
_content_modal ----> [date-fns]
_content_modal ----> [lodash/lodash]
_content_modal ----> [react]
_content_modal --> (urls)
_content_modal --> (utils)
_content_search ----> [@devexpress]
_content_search ----> [@material-ui]
_content_search --> (action_panel)
_content_search ----> [pretty-bytes]
_content_search ----> [react]
_content_search --> (utils)
_global_state ----> [@devexpress]
_global_state ----> [axios]
_global_state ----> [date-fns]
_global_state ----> [lodash/lodash]
_global_state ----> [react]
_global_state --> (urls)
_global_state --> (utils)
_home_screen ----> [@material-ui]
_home_screen ----> [react]
(<b>js</b>) ----[thickness=1]> [@date-io]
(<b>js</b>) ----[thickness=1]> [@material-ui]
(<b>js</b>) -[thickness=1]> _global_state
(<b>js</b>) ----[thickness=1]> [immer]
(<b>js</b>) -[thickness=1]> (main)
(<b>js</b>) ----[thickness=1]> [react]
(<b>js</b>) ----[thickness=1]> [react-dom]
_kebab_menu ----> [@material-ui]
_kebab_menu ----> [react]
_kebab_menu --> (utils)
_libraries ----> [@devexpress]
_libraries ----> [@material-ui]
_libraries --> (action_dialog)
_libraries --> (action_panel)
_libraries --> _content_search
_libraries ----> [date-fns]
_libraries --> _kebab_menu
_libraries ----> [lodash/lodash]
_libraries ----> [pretty-bytes]
_libraries ----> [react]
_libraries --> (utils)
_libraries --> _validators
_libraries --> _view_content_modal
_library_assets ----> [@material-ui]
_library_assets --> (action_dialog)
_library_assets ----> [lodash/lodash]
_library_assets ----> [react]
_library_assets --> (utils)
_library_assets --> _validators
_library_images ----> [@devexpress]
_library_images ----> [@material-ui]
_library_images --> (action_panel)
_library_images ----> [react]
_library_modules ----> [@devexpress]
_library_modules ----> [@material-ui]
_library_modules --> (action_dialog)
_library_modules --> (action_panel)
_library_modules ----> [lodash/lodash]
_library_modules ----> [react]
_library_modules --> (urls)
_library_modules --> (utils)
_library_modules --> _validators
(main) ----> [@material-ui]
(main) --> _content
(main) --> _home_screen
(main) --> _libraries
(main) --> _library_assets
(main) --> _library_images
(main) --> _library_modules
(main) --> _metadata
(main) ----> [react]
(main) --> _system_info
(main) --> (utils)
_metadata ----> [@devexpress]
_metadata ----> [@material-ui]
_metadata --> (action_dialog)
_metadata --> (action_panel)
_metadata --> _kebab_menu
_metadata ----> [lodash/lodash]
_metadata ----> [react]
_metadata --> (urls)
_metadata --> (utils)
_metadata --> _validators
_system_info ----> [@material-ui]
_system_info ----> [pretty-bytes]
_system_info ----> [react]
(urls) ----> [axios]
(urls) ----> [date-fns]
(urls) ----> [lodash/lodash]
(utils) ----> [immer]
(utils) ----> [lodash/lodash]
(utils) ----> [xlsx]
_validators ----> [lodash/lodash]
_view_content_modal ----> [@material-ui]
_view_content_modal --> (action_dialog)
_view_content_modal ----> [lodash/lodash]
_view_content_modal ----> [pretty-bytes]
_view_content_modal ----> [react]
_view_content_modal --> (urls)

@enduml


' View and edit on https://arkit.pro
]]></script></g></svg>